M48
;DRILL file {KiCad 4.0.1-2.fc23-product} date Fri 01 Jan 2016 21:05:55 CET
;FORMAT={-:-/ absolute / inch / decimal}
FMAT,2
INCH,TZ
T1C0.016
T2C0.040
T3C0.053
T4C0.070
%
G90
G05
M72
T1
X4.15Y-4.15
X4.15Y-4.19
X4.19Y-4.15
X4.19Y-4.19
X4.23Y-4.15
X4.23Y-4.19
X4.33Y-4.15
X4.33Y-4.19
X4.37Y-4.15
X4.37Y-4.19
X4.41Y-4.15
X4.41Y-4.19
X4.64Y-4.11
X4.64Y-4.15
X4.64Y-4.19
X4.64Y-4.23
X4.68Y-4.11
X4.68Y-4.15
X4.68Y-4.19
X4.68Y-4.23
X4.7Y-4.41
X4.72Y-4.15
X4.72Y-4.19
X4.72Y-4.23
X4.78Y-4.82
X5.22Y-4.72
X5.22Y-4.92
X5.38Y-4.58
X5.38Y-4.96
X5.6Y-4.96
X5.76Y-4.96
X5.92Y-4.73
X6.Y-5.01
X6.Y-5.05
X6.04Y-5.01
X6.04Y-5.05
X6.08Y-5.01
X6.08Y-5.05
X6.11Y-4.6
X6.12Y-4.41
X6.12Y-5.01
X6.12Y-5.05
X6.16Y-4.37
X6.16Y-4.41
X6.16Y-5.01
X6.16Y-5.05
X6.2Y-4.37
X6.2Y-4.41
X6.2Y-5.01
X6.2Y-5.05
X6.24Y-4.09
X6.24Y-4.13
X6.24Y-4.17
X6.24Y-4.21
X6.24Y-4.25
X6.24Y-4.29
X6.24Y-4.33
X6.24Y-4.37
X6.24Y-4.41
X6.24Y-5.01
X6.28Y-4.09
X6.28Y-4.13
X6.28Y-4.17
X6.28Y-4.21
X6.28Y-4.25
X6.28Y-4.29
X6.28Y-4.33
X6.28Y-4.37
X6.28Y-4.41
X6.28Y-4.46
X6.28Y-4.5
X6.28Y-4.54
X6.28Y-4.58
X6.28Y-4.62
X6.28Y-4.66
X6.28Y-4.7
X6.28Y-4.74
X6.28Y-4.77
X6.28Y-4.81
X6.28Y-4.85
X6.28Y-4.89
X6.28Y-4.93
X6.28Y-4.97
X6.28Y-5.01
T2
X4.56Y-4.96
X4.66Y-4.96
X4.76Y-4.96
X4.86Y-4.96
T3
X4.1785Y-3.98
X4.2785Y-3.88
X4.2785Y-4.08
X4.3785Y-3.98
X4.7816Y-3.98
X4.8816Y-3.88
X4.8816Y-4.08
X4.9816Y-3.98
T4
X4.28Y-4.3216
X4.28Y-4.5184
X4.28Y-4.7216
X4.28Y-4.9184
X6.06Y-3.6916
X6.06Y-3.8884
X6.06Y-4.0916
X6.06Y-4.2884
T0
M30
