%TF.GenerationSoftware,KiCad,Pcbnew,4.0.1-2.fc23-product*%
%TF.CreationDate,2015-12-31T19:29:04+01:00*%
%TF.ProjectId,sunpowered,73756E706F77657265642E6B69636164,rev?*%
%TF.FileFunction,Legend,Top*%
%FSLAX46Y46*%
G04 Gerber Fmt 4.6, Leading zero omitted, Abs format (unit mm)*
G04 Created by KiCad (PCBNEW 4.0.1-2.fc23-product) date Thu 31 Dec 2015 19:29:04 CET*
%MOMM*%
G01*
G04 APERTURE LIST*
%ADD10C,0.100000*%
%ADD11C,0.200000*%
%ADD12C,0.300000*%
%ADD13C,0.150000*%
%ADD14C,0.127000*%
%ADD15C,0.381000*%
%ADD16C,0.076200*%
G04 APERTURE END LIST*
D10*
D11*
X119380000Y-94488000D02*
X119380000Y-89408000D01*
X102362000Y-94488000D02*
X119380000Y-94488000D01*
D12*
X108807715Y-91269429D02*
X108879144Y-91198000D01*
X109022001Y-91126571D01*
X109379144Y-91126571D01*
X109522001Y-91198000D01*
X109593430Y-91269429D01*
X109664858Y-91412286D01*
X109664858Y-91555143D01*
X109593430Y-91769429D01*
X108736287Y-92626571D01*
X109664858Y-92626571D01*
X110950572Y-91626571D02*
X110950572Y-92626571D01*
X110593429Y-91055143D02*
X110236286Y-92126571D01*
X111164858Y-92126571D01*
X111522000Y-91126571D02*
X112022000Y-92626571D01*
X112522000Y-91126571D01*
X114379143Y-91769429D02*
X114236285Y-91698000D01*
X114164857Y-91626571D01*
X114093428Y-91483714D01*
X114093428Y-91412286D01*
X114164857Y-91269429D01*
X114236285Y-91198000D01*
X114379143Y-91126571D01*
X114664857Y-91126571D01*
X114807714Y-91198000D01*
X114879143Y-91269429D01*
X114950571Y-91412286D01*
X114950571Y-91483714D01*
X114879143Y-91626571D01*
X114807714Y-91698000D01*
X114664857Y-91769429D01*
X114379143Y-91769429D01*
X114236285Y-91840857D01*
X114164857Y-91912286D01*
X114093428Y-92055143D01*
X114093428Y-92340857D01*
X114164857Y-92483714D01*
X114236285Y-92555143D01*
X114379143Y-92626571D01*
X114664857Y-92626571D01*
X114807714Y-92555143D01*
X114879143Y-92483714D01*
X114950571Y-92340857D01*
X114950571Y-92055143D01*
X114879143Y-91912286D01*
X114807714Y-91840857D01*
X114664857Y-91769429D01*
X115521999Y-92198000D02*
X116236285Y-92198000D01*
X115379142Y-92626571D02*
X115879142Y-91126571D01*
X116379142Y-92626571D01*
X103314572Y-112375143D02*
X104457429Y-112375143D01*
X103886000Y-112946571D02*
X103886000Y-111803714D01*
X124376571Y-130861428D02*
X122876571Y-130861428D01*
X124305143Y-130218571D02*
X124376571Y-130075714D01*
X124376571Y-129789999D01*
X124305143Y-129647142D01*
X124162286Y-129575714D01*
X124090857Y-129575714D01*
X123948000Y-129647142D01*
X123876571Y-129789999D01*
X123876571Y-130004285D01*
X123805143Y-130147142D01*
X123662286Y-130218571D01*
X123590857Y-130218571D01*
X123448000Y-130147142D01*
X123376571Y-130004285D01*
X123376571Y-129789999D01*
X123448000Y-129647142D01*
X123019429Y-129004285D02*
X122948000Y-128932856D01*
X122876571Y-128789999D01*
X122876571Y-128432856D01*
X122948000Y-128289999D01*
X123019429Y-128218570D01*
X123162286Y-128147142D01*
X123305143Y-128147142D01*
X123519429Y-128218570D01*
X124376571Y-129075713D01*
X124376571Y-128147142D01*
X117792572Y-128631143D02*
X118935429Y-128631143D01*
X120332572Y-128631143D02*
X121475429Y-128631143D01*
X120904000Y-129202571D02*
X120904000Y-128059714D01*
X116502571Y-130607428D02*
X115002571Y-130607428D01*
X116431143Y-129964571D02*
X116502571Y-129821714D01*
X116502571Y-129535999D01*
X116431143Y-129393142D01*
X116288286Y-129321714D01*
X116216857Y-129321714D01*
X116074000Y-129393142D01*
X116002571Y-129535999D01*
X116002571Y-129750285D01*
X115931143Y-129893142D01*
X115788286Y-129964571D01*
X115716857Y-129964571D01*
X115574000Y-129893142D01*
X115502571Y-129750285D01*
X115502571Y-129535999D01*
X115574000Y-129393142D01*
X116502571Y-127893142D02*
X116502571Y-128750285D01*
X116502571Y-128321713D02*
X115002571Y-128321713D01*
X115216857Y-128464570D01*
X115359714Y-128607428D01*
X115431143Y-128750285D01*
X114216571Y-120240857D02*
X112716571Y-120240857D01*
X114216571Y-119526571D02*
X112716571Y-119526571D01*
X114216571Y-118669428D01*
X112716571Y-118669428D01*
X114216571Y-117955142D02*
X112716571Y-117955142D01*
X112716571Y-117383714D01*
X112788000Y-117240856D01*
X112859429Y-117169428D01*
X113002286Y-117097999D01*
X113216571Y-117097999D01*
X113359429Y-117169428D01*
X113430857Y-117240856D01*
X113502286Y-117383714D01*
X113502286Y-117955142D01*
X112716571Y-116455142D02*
X113930857Y-116455142D01*
X114073714Y-116383714D01*
X114145143Y-116312285D01*
X114216571Y-116169428D01*
X114216571Y-115883714D01*
X114145143Y-115740856D01*
X114073714Y-115669428D01*
X113930857Y-115597999D01*
X112716571Y-115597999D01*
X112716571Y-115097999D02*
X112716571Y-114240856D01*
X114216571Y-114669427D02*
X112716571Y-114669427D01*
X104310571Y-120240857D02*
X102810571Y-120240857D01*
X104310571Y-119526571D02*
X102810571Y-119526571D01*
X104310571Y-118669428D01*
X102810571Y-118669428D01*
X104310571Y-117955142D02*
X102810571Y-117955142D01*
X102810571Y-117383714D01*
X102882000Y-117240856D01*
X102953429Y-117169428D01*
X103096286Y-117097999D01*
X103310571Y-117097999D01*
X103453429Y-117169428D01*
X103524857Y-117240856D01*
X103596286Y-117383714D01*
X103596286Y-117955142D01*
X102810571Y-116455142D02*
X104024857Y-116455142D01*
X104167714Y-116383714D01*
X104239143Y-116312285D01*
X104310571Y-116169428D01*
X104310571Y-115883714D01*
X104239143Y-115740856D01*
X104167714Y-115669428D01*
X104024857Y-115597999D01*
X102810571Y-115597999D01*
X102810571Y-115097999D02*
X102810571Y-114240856D01*
X104310571Y-114669427D02*
X102810571Y-114669427D01*
X103314572Y-112375143D02*
X104457429Y-112375143D01*
X103886000Y-112946571D02*
X103886000Y-111803714D01*
X161397143Y-106743428D02*
X161397143Y-105600571D01*
X160718572Y-96373143D02*
X161861429Y-96373143D01*
X161290000Y-96944571D02*
X161290000Y-95801714D01*
X148276571Y-105461143D02*
X148276571Y-105175429D01*
X148348000Y-105032571D01*
X148490857Y-104889714D01*
X148776571Y-104818286D01*
X149276571Y-104818286D01*
X149562286Y-104889714D01*
X149705143Y-105032571D01*
X149776571Y-105175429D01*
X149776571Y-105461143D01*
X149705143Y-105604000D01*
X149562286Y-105746857D01*
X149276571Y-105818286D01*
X148776571Y-105818286D01*
X148490857Y-105746857D01*
X148348000Y-105604000D01*
X148276571Y-105461143D01*
X148276571Y-104175428D02*
X149490857Y-104175428D01*
X149633714Y-104104000D01*
X149705143Y-104032571D01*
X149776571Y-103889714D01*
X149776571Y-103604000D01*
X149705143Y-103461142D01*
X149633714Y-103389714D01*
X149490857Y-103318285D01*
X148276571Y-103318285D01*
X148276571Y-102818285D02*
X148276571Y-101961142D01*
X149776571Y-102389713D02*
X148276571Y-102389713D01*
X149776571Y-101461142D02*
X148276571Y-101461142D01*
X148276571Y-100889714D01*
X148348000Y-100746856D01*
X148419429Y-100675428D01*
X148562286Y-100603999D01*
X148776571Y-100603999D01*
X148919429Y-100675428D01*
X148990857Y-100746856D01*
X149062286Y-100889714D01*
X149062286Y-101461142D01*
X148276571Y-99961142D02*
X149490857Y-99961142D01*
X149633714Y-99889714D01*
X149705143Y-99818285D01*
X149776571Y-99675428D01*
X149776571Y-99389714D01*
X149705143Y-99246856D01*
X149633714Y-99175428D01*
X149490857Y-99103999D01*
X148276571Y-99103999D01*
X148276571Y-98603999D02*
X148276571Y-97746856D01*
X149776571Y-98175427D02*
X148276571Y-98175427D01*
X103993143Y-122999428D02*
X103993143Y-121856571D01*
D13*
X153797000Y-118364000D02*
X153797000Y-115189000D01*
X153797000Y-115189000D02*
X152019000Y-115189000D01*
X152019000Y-115189000D02*
X152019000Y-118364000D01*
X158369000Y-118364000D02*
X158369000Y-115189000D01*
X158369000Y-115189000D02*
X156591000Y-115189000D01*
X156591000Y-115189000D02*
X156591000Y-118364000D01*
X151765000Y-124460000D02*
X151765000Y-118364000D01*
X151765000Y-118364000D02*
X158623000Y-118364000D01*
X158623000Y-118364000D02*
X158623000Y-126238000D01*
X158623000Y-126365000D02*
X151765000Y-126365000D01*
X151765000Y-126238000D02*
X151765000Y-124460000D01*
D14*
X105537000Y-128016000D02*
X105664000Y-127508000D01*
X106680000Y-128016000D02*
X105537000Y-128016000D01*
X106553000Y-127508000D02*
X106680000Y-128016000D01*
X110617000Y-112649000D02*
X106807000Y-112649000D01*
X110617000Y-111887000D02*
X110617000Y-112649000D01*
X106807000Y-111887000D02*
X110617000Y-111887000D01*
X106807000Y-112649000D02*
X106807000Y-111887000D01*
X106807000Y-112522000D02*
X110617000Y-112522000D01*
X106807000Y-112395000D02*
X110617000Y-112395000D01*
X106807000Y-112268000D02*
X110617000Y-112268000D01*
X106807000Y-112141000D02*
X110617000Y-112141000D01*
X106807000Y-112014000D02*
X110617000Y-112014000D01*
X110871000Y-117348000D02*
X106553000Y-117348000D01*
X110871000Y-107188000D02*
X110871000Y-117348000D01*
X106553000Y-107188000D02*
X110871000Y-107188000D01*
X106553000Y-117348000D02*
X106553000Y-107188000D01*
X110490000Y-114768000D02*
G75*
G03X110490000Y-114768000I-1778000J0D01*
G01*
D15*
X109855000Y-115911000D02*
X107569000Y-113625000D01*
X107696000Y-113498000D02*
X109982000Y-115784000D01*
X109728000Y-116038000D02*
X107442000Y-113752000D01*
X109728000Y-111038000D02*
X107442000Y-108752000D01*
X107696000Y-108498000D02*
X109982000Y-110784000D01*
X109855000Y-110911000D02*
X107569000Y-108625000D01*
D14*
X110490000Y-109768000D02*
G75*
G03X110490000Y-109768000I-1778000J0D01*
G01*
X112268000Y-107188000D02*
X110871000Y-107188000D01*
X112268000Y-117348000D02*
X112268000Y-107188000D01*
X110871000Y-117348000D02*
X112268000Y-117348000D01*
X104775000Y-107188000D02*
X106553000Y-107188000D01*
X104775000Y-117348000D02*
X104775000Y-107188000D01*
X106553000Y-117348000D02*
X104775000Y-117348000D01*
X106172000Y-114808000D02*
G75*
G03X106172000Y-114808000I-508000J0D01*
G01*
X106172000Y-109728000D02*
G75*
G03X106172000Y-109728000I-508000J0D01*
G01*
X106172000Y-119888000D02*
G75*
G03X106172000Y-119888000I-508000J0D01*
G01*
X106172000Y-124968000D02*
G75*
G03X106172000Y-124968000I-508000J0D01*
G01*
X106553000Y-127508000D02*
X104775000Y-127508000D01*
X104775000Y-127508000D02*
X104775000Y-117348000D01*
X104775000Y-117348000D02*
X106553000Y-117348000D01*
X110871000Y-127508000D02*
X112268000Y-127508000D01*
X112268000Y-127508000D02*
X112268000Y-117348000D01*
X112268000Y-117348000D02*
X110871000Y-117348000D01*
X110490000Y-119928000D02*
G75*
G03X110490000Y-119928000I-1778000J0D01*
G01*
D15*
X109855000Y-121071000D02*
X107569000Y-118785000D01*
X107696000Y-118658000D02*
X109982000Y-120944000D01*
X109728000Y-121198000D02*
X107442000Y-118912000D01*
X109728000Y-126198000D02*
X107442000Y-123912000D01*
X107696000Y-123658000D02*
X109982000Y-125944000D01*
X109855000Y-126071000D02*
X107569000Y-123785000D01*
D14*
X110490000Y-124928000D02*
G75*
G03X110490000Y-124928000I-1778000J0D01*
G01*
X106553000Y-127508000D02*
X106553000Y-117348000D01*
X106553000Y-117348000D02*
X110871000Y-117348000D01*
X110871000Y-117348000D02*
X110871000Y-127508000D01*
X110871000Y-127508000D02*
X106553000Y-127508000D01*
X106807000Y-122174000D02*
X110617000Y-122174000D01*
X106807000Y-122301000D02*
X110617000Y-122301000D01*
X106807000Y-122428000D02*
X110617000Y-122428000D01*
X106807000Y-122555000D02*
X110617000Y-122555000D01*
X106807000Y-122682000D02*
X110617000Y-122682000D01*
X106807000Y-122809000D02*
X106807000Y-122047000D01*
X106807000Y-122047000D02*
X110617000Y-122047000D01*
X110617000Y-122047000D02*
X110617000Y-122809000D01*
X110617000Y-122809000D02*
X106807000Y-122809000D01*
D13*
X120904000Y-113157000D02*
X117729000Y-113157000D01*
X117729000Y-113157000D02*
X117729000Y-114935000D01*
X117729000Y-114935000D02*
X120904000Y-114935000D01*
X120904000Y-108585000D02*
X117729000Y-108585000D01*
X117729000Y-108585000D02*
X117729000Y-110363000D01*
X117729000Y-110363000D02*
X120904000Y-110363000D01*
X127000000Y-115189000D02*
X120904000Y-115189000D01*
X120904000Y-115189000D02*
X120904000Y-108331000D01*
X120904000Y-108331000D02*
X128778000Y-108331000D01*
X128905000Y-108331000D02*
X128905000Y-115189000D01*
X128778000Y-115189000D02*
X127000000Y-115189000D01*
X113080800Y-101092000D02*
X119583200Y-101092000D01*
X112991900Y-104521000D02*
X110070900Y-104521000D01*
X103466900Y-104521000D02*
X107276900Y-104521000D01*
X104228900Y-103632000D02*
X107022900Y-103632000D01*
X112991900Y-103632000D02*
X110324900Y-103632000D01*
X103466900Y-97663000D02*
X107276900Y-97663000D01*
X104228900Y-98552000D02*
X107022900Y-98552000D01*
X112991900Y-97663000D02*
X110070900Y-97663000D01*
X112991900Y-98552000D02*
X110324900Y-98552000D01*
X119547640Y-97663000D02*
X122595640Y-97663000D01*
X119547640Y-98552000D02*
X122341640Y-98552000D01*
X119547640Y-103632000D02*
X122341640Y-103632000D01*
X119547640Y-104521000D02*
X122595640Y-104521000D01*
X129199640Y-104521000D02*
X125389640Y-104521000D01*
X128310640Y-103632000D02*
X125643640Y-103632000D01*
X129199640Y-97663000D02*
X125389640Y-97663000D01*
X128310640Y-98552000D02*
X125643640Y-98552000D01*
X129199640Y-97663000D02*
X129199640Y-104521000D01*
X119547640Y-104521000D02*
X119547640Y-103632000D01*
X119547640Y-97663000D02*
X119547640Y-98552000D01*
X103464360Y-97663000D02*
X103464360Y-104521000D01*
X112989360Y-104521000D02*
X112989360Y-103632000D01*
X112989360Y-97663000D02*
X112989360Y-98679000D01*
X122047000Y-103632000D02*
X110363000Y-103632000D01*
X110490000Y-98552000D02*
X122047000Y-98552000D01*
X112989360Y-101092000D02*
X112989360Y-98552000D01*
X104226360Y-98552000D02*
X104226360Y-103632000D01*
X112989360Y-103632000D02*
X112989360Y-101092000D01*
X119547640Y-101092000D02*
X119547640Y-98552000D01*
X128308100Y-98552000D02*
X128308100Y-103632000D01*
X119547640Y-103632000D02*
X119547640Y-101092000D01*
X124469000Y-121396000D02*
X124469000Y-119396000D01*
X122419000Y-119396000D02*
X122419000Y-121396000D01*
X140725000Y-121396000D02*
X140725000Y-119396000D01*
X138675000Y-119396000D02*
X138675000Y-121396000D01*
X147819000Y-115332000D02*
X147819000Y-117332000D01*
X149869000Y-117332000D02*
X149869000Y-115332000D01*
X130788000Y-113517680D02*
X130987800Y-113517680D01*
X130838000Y-113974720D02*
X130987000Y-113974720D01*
X130788000Y-118120160D02*
X130937000Y-118120160D01*
X134388000Y-113522760D02*
X134239000Y-113522760D01*
X134388000Y-113974720D02*
X134239000Y-113974720D01*
X134388000Y-118125240D02*
X134239000Y-118125240D01*
X130639020Y-113974720D02*
X130837140Y-113974720D01*
X134586980Y-113974720D02*
X134388860Y-113974720D01*
X130591560Y-118120160D02*
X130789680Y-118120160D01*
X130591560Y-113517680D02*
X130591560Y-118120160D01*
X130591560Y-113517680D02*
X130789680Y-113517680D01*
X134586980Y-113522760D02*
X134388860Y-113522760D01*
X134586980Y-113522760D02*
X134586980Y-118125240D01*
X134586980Y-118125240D02*
X134388860Y-118125240D01*
D14*
X157099000Y-90678000D02*
X156972000Y-91186000D01*
X155956000Y-90678000D02*
X157099000Y-90678000D01*
X156083000Y-91186000D02*
X155956000Y-90678000D01*
X152019000Y-106045000D02*
X155829000Y-106045000D01*
X152019000Y-106807000D02*
X152019000Y-106045000D01*
X155829000Y-106807000D02*
X152019000Y-106807000D01*
X155829000Y-106045000D02*
X155829000Y-106807000D01*
X155829000Y-106172000D02*
X152019000Y-106172000D01*
X155829000Y-106299000D02*
X152019000Y-106299000D01*
X155829000Y-106426000D02*
X152019000Y-106426000D01*
X155829000Y-106553000D02*
X152019000Y-106553000D01*
X155829000Y-106680000D02*
X152019000Y-106680000D01*
X151765000Y-101346000D02*
X156083000Y-101346000D01*
X151765000Y-111506000D02*
X151765000Y-101346000D01*
X156083000Y-111506000D02*
X151765000Y-111506000D01*
X156083000Y-101346000D02*
X156083000Y-111506000D01*
X155702000Y-103926000D02*
G75*
G03X155702000Y-103926000I-1778000J0D01*
G01*
D15*
X152781000Y-102783000D02*
X155067000Y-105069000D01*
X154940000Y-105196000D02*
X152654000Y-102910000D01*
X152908000Y-102656000D02*
X155194000Y-104942000D01*
X152908000Y-107656000D02*
X155194000Y-109942000D01*
X154940000Y-110196000D02*
X152654000Y-107910000D01*
X152781000Y-107783000D02*
X155067000Y-110069000D01*
D14*
X155702000Y-108926000D02*
G75*
G03X155702000Y-108926000I-1778000J0D01*
G01*
X150368000Y-111506000D02*
X151765000Y-111506000D01*
X150368000Y-101346000D02*
X150368000Y-111506000D01*
X151765000Y-101346000D02*
X150368000Y-101346000D01*
X157861000Y-111506000D02*
X156083000Y-111506000D01*
X157861000Y-101346000D02*
X157861000Y-111506000D01*
X156083000Y-101346000D02*
X157861000Y-101346000D01*
X157480000Y-103886000D02*
G75*
G03X157480000Y-103886000I-508000J0D01*
G01*
X157480000Y-108966000D02*
G75*
G03X157480000Y-108966000I-508000J0D01*
G01*
X157480000Y-98806000D02*
G75*
G03X157480000Y-98806000I-508000J0D01*
G01*
X157480000Y-93726000D02*
G75*
G03X157480000Y-93726000I-508000J0D01*
G01*
X156083000Y-91186000D02*
X157861000Y-91186000D01*
X157861000Y-91186000D02*
X157861000Y-101346000D01*
X157861000Y-101346000D02*
X156083000Y-101346000D01*
X151765000Y-91186000D02*
X150368000Y-91186000D01*
X150368000Y-91186000D02*
X150368000Y-101346000D01*
X150368000Y-101346000D02*
X151765000Y-101346000D01*
X155702000Y-98766000D02*
G75*
G03X155702000Y-98766000I-1778000J0D01*
G01*
D15*
X152781000Y-97623000D02*
X155067000Y-99909000D01*
X154940000Y-100036000D02*
X152654000Y-97750000D01*
X152908000Y-97496000D02*
X155194000Y-99782000D01*
X152908000Y-92496000D02*
X155194000Y-94782000D01*
X154940000Y-95036000D02*
X152654000Y-92750000D01*
X152781000Y-92623000D02*
X155067000Y-94909000D01*
D14*
X155702000Y-93766000D02*
G75*
G03X155702000Y-93766000I-1778000J0D01*
G01*
X156083000Y-91186000D02*
X156083000Y-101346000D01*
X156083000Y-101346000D02*
X151765000Y-101346000D01*
X151765000Y-101346000D02*
X151765000Y-91186000D01*
X151765000Y-91186000D02*
X156083000Y-91186000D01*
X155829000Y-96520000D02*
X152019000Y-96520000D01*
X155829000Y-96393000D02*
X152019000Y-96393000D01*
X155829000Y-96266000D02*
X152019000Y-96266000D01*
X155829000Y-96139000D02*
X152019000Y-96139000D01*
X155829000Y-96012000D02*
X152019000Y-96012000D01*
X155829000Y-95885000D02*
X155829000Y-96647000D01*
X155829000Y-96647000D02*
X152019000Y-96647000D01*
X152019000Y-96647000D02*
X152019000Y-95885000D01*
X152019000Y-95885000D02*
X155829000Y-95885000D01*
D13*
X122174000Y-124714000D02*
X114554000Y-124714000D01*
X122174000Y-127254000D02*
X114554000Y-127254000D01*
X124994000Y-127534000D02*
X123444000Y-127534000D01*
X114554000Y-124714000D02*
X114554000Y-127254000D01*
X122174000Y-127254000D02*
X122174000Y-124714000D01*
X123444000Y-124434000D02*
X124994000Y-124434000D01*
X124994000Y-124434000D02*
X124994000Y-127534000D01*
X143891000Y-106680000D02*
X143891000Y-109855000D01*
X143891000Y-109855000D02*
X145669000Y-109855000D01*
X145669000Y-109855000D02*
X145669000Y-106680000D01*
X139319000Y-106680000D02*
X139319000Y-109855000D01*
X139319000Y-109855000D02*
X141097000Y-109855000D01*
X141097000Y-109855000D02*
X141097000Y-106680000D01*
X145923000Y-100584000D02*
X145923000Y-106680000D01*
X145923000Y-106680000D02*
X139065000Y-106680000D01*
X139065000Y-106680000D02*
X139065000Y-98806000D01*
X139065000Y-98679000D02*
X145923000Y-98679000D01*
X145923000Y-98806000D02*
X145923000Y-100584000D01*
X116348000Y-121353000D02*
X118348000Y-121353000D01*
X118348000Y-123503000D02*
X116348000Y-123503000D01*
X127449000Y-121396000D02*
X127449000Y-119396000D01*
X129599000Y-119396000D02*
X129599000Y-121396000D01*
X143240000Y-127059000D02*
X141240000Y-127059000D01*
X141240000Y-124909000D02*
X143240000Y-124909000D01*
X147769000Y-124952000D02*
X147769000Y-122952000D01*
X149919000Y-122952000D02*
X149919000Y-124952000D01*
X132491480Y-124383800D02*
X132491480Y-124874020D01*
X133192520Y-124383800D02*
X132491480Y-124383800D01*
X133192520Y-127584200D02*
X132491480Y-127584200D01*
X137677000Y-121396000D02*
X137677000Y-119396000D01*
X135627000Y-119396000D02*
X135627000Y-121396000D01*
X155352762Y-130595619D02*
X155257524Y-130548000D01*
X155162286Y-130452762D01*
X155019429Y-130309905D01*
X154924190Y-130262286D01*
X154828952Y-130262286D01*
X154876571Y-130500381D02*
X154781333Y-130452762D01*
X154686095Y-130357524D01*
X154638476Y-130167048D01*
X154638476Y-129833714D01*
X154686095Y-129643238D01*
X154781333Y-129548000D01*
X154876571Y-129500381D01*
X155067048Y-129500381D01*
X155162286Y-129548000D01*
X155257524Y-129643238D01*
X155305143Y-129833714D01*
X155305143Y-130167048D01*
X155257524Y-130357524D01*
X155162286Y-130452762D01*
X155067048Y-130500381D01*
X154876571Y-130500381D01*
X155686095Y-129595619D02*
X155733714Y-129548000D01*
X155828952Y-129500381D01*
X156067048Y-129500381D01*
X156162286Y-129548000D01*
X156209905Y-129595619D01*
X156257524Y-129690857D01*
X156257524Y-129786095D01*
X156209905Y-129928952D01*
X155638476Y-130500381D01*
X156257524Y-130500381D01*
D16*
X108112077Y-106793695D02*
X108112077Y-105980895D01*
X108421715Y-105980895D01*
X108499124Y-106019600D01*
X108537829Y-106058305D01*
X108576534Y-106135714D01*
X108576534Y-106251829D01*
X108537829Y-106329238D01*
X108499124Y-106367943D01*
X108421715Y-106406648D01*
X108112077Y-106406648D01*
X109350629Y-106793695D02*
X108886172Y-106793695D01*
X109118401Y-106793695D02*
X109118401Y-105980895D01*
X109040991Y-106097010D01*
X108963582Y-106174419D01*
X108886172Y-106213124D01*
X105218895Y-116602933D02*
X105218895Y-116099771D01*
X105528533Y-116370704D01*
X105528533Y-116254590D01*
X105567238Y-116177180D01*
X105605943Y-116138476D01*
X105683352Y-116099771D01*
X105876876Y-116099771D01*
X105954286Y-116138476D01*
X105992990Y-116177180D01*
X106031695Y-116254590D01*
X106031695Y-116486818D01*
X105992990Y-116564228D01*
X105954286Y-116602933D01*
X105489829Y-111097180D02*
X106031695Y-111097180D01*
X105180190Y-111290704D02*
X105760762Y-111484228D01*
X105760762Y-110981066D01*
X105296305Y-121644228D02*
X105257600Y-121605523D01*
X105218895Y-121528114D01*
X105218895Y-121334590D01*
X105257600Y-121257180D01*
X105296305Y-121218476D01*
X105373714Y-121179771D01*
X105451124Y-121179771D01*
X105567238Y-121218476D01*
X106031695Y-121682933D01*
X106031695Y-121179771D01*
X106031695Y-126259771D02*
X106031695Y-126724228D01*
X106031695Y-126491999D02*
X105218895Y-126491999D01*
X105335010Y-126569409D01*
X105412419Y-126646818D01*
X105451124Y-126724228D01*
D13*
X122197905Y-107640381D02*
X122197905Y-106640381D01*
X122436000Y-106640381D01*
X122578858Y-106688000D01*
X122674096Y-106783238D01*
X122721715Y-106878476D01*
X122769334Y-107068952D01*
X122769334Y-107211810D01*
X122721715Y-107402286D01*
X122674096Y-107497524D01*
X122578858Y-107592762D01*
X122436000Y-107640381D01*
X122197905Y-107640381D01*
X123721715Y-107640381D02*
X123150286Y-107640381D01*
X123436000Y-107640381D02*
X123436000Y-106640381D01*
X123340762Y-106783238D01*
X123245524Y-106878476D01*
X123150286Y-106926095D01*
X108378667Y-95940571D02*
X108045333Y-95940571D01*
X108045333Y-96464381D02*
X108045333Y-95464381D01*
X108521524Y-95464381D01*
X109426286Y-96464381D02*
X108854857Y-96464381D01*
X109140571Y-96464381D02*
X109140571Y-95464381D01*
X109045333Y-95607238D01*
X108950095Y-95702476D01*
X108854857Y-95750095D01*
X110728190Y-95892952D02*
X110632952Y-95845333D01*
X110585333Y-95797714D01*
X110537714Y-95702476D01*
X110537714Y-95654857D01*
X110585333Y-95559619D01*
X110632952Y-95512000D01*
X110728190Y-95464381D01*
X110918667Y-95464381D01*
X111013905Y-95512000D01*
X111061524Y-95559619D01*
X111109143Y-95654857D01*
X111109143Y-95702476D01*
X111061524Y-95797714D01*
X111013905Y-95845333D01*
X110918667Y-95892952D01*
X110728190Y-95892952D01*
X110632952Y-95940571D01*
X110585333Y-95988190D01*
X110537714Y-96083429D01*
X110537714Y-96273905D01*
X110585333Y-96369143D01*
X110632952Y-96416762D01*
X110728190Y-96464381D01*
X110918667Y-96464381D01*
X111013905Y-96416762D01*
X111061524Y-96369143D01*
X111109143Y-96273905D01*
X111109143Y-96083429D01*
X111061524Y-95988190D01*
X111013905Y-95940571D01*
X110918667Y-95892952D01*
X111490095Y-96178667D02*
X111966286Y-96178667D01*
X111394857Y-96464381D02*
X111728190Y-95464381D01*
X112061524Y-96464381D01*
X123277334Y-116689143D02*
X123229715Y-116736762D01*
X123086858Y-116784381D01*
X122991620Y-116784381D01*
X122848762Y-116736762D01*
X122753524Y-116641524D01*
X122705905Y-116546286D01*
X122658286Y-116355810D01*
X122658286Y-116212952D01*
X122705905Y-116022476D01*
X122753524Y-115927238D01*
X122848762Y-115832000D01*
X122991620Y-115784381D01*
X123086858Y-115784381D01*
X123229715Y-115832000D01*
X123277334Y-115879619D01*
X124229715Y-116784381D02*
X123658286Y-116784381D01*
X123944000Y-116784381D02*
X123944000Y-115784381D01*
X123848762Y-115927238D01*
X123753524Y-116022476D01*
X123658286Y-116070095D01*
X121864381Y-121007047D02*
X121864381Y-121578476D01*
X121864381Y-121292762D02*
X120864381Y-121292762D01*
X121007238Y-121388000D01*
X121102476Y-121483238D01*
X121150095Y-121578476D01*
X120864381Y-120388000D02*
X120864381Y-120292761D01*
X120912000Y-120197523D01*
X120959619Y-120149904D01*
X121054857Y-120102285D01*
X121245333Y-120054666D01*
X121483429Y-120054666D01*
X121673905Y-120102285D01*
X121769143Y-120149904D01*
X121816762Y-120197523D01*
X121864381Y-120292761D01*
X121864381Y-120388000D01*
X121816762Y-120483238D01*
X121769143Y-120530857D01*
X121673905Y-120578476D01*
X121483429Y-120626095D01*
X121245333Y-120626095D01*
X121054857Y-120578476D01*
X120959619Y-120530857D01*
X120912000Y-120483238D01*
X120864381Y-120388000D01*
X120864381Y-119435619D02*
X120864381Y-119340380D01*
X120912000Y-119245142D01*
X120959619Y-119197523D01*
X121054857Y-119149904D01*
X121245333Y-119102285D01*
X121483429Y-119102285D01*
X121673905Y-119149904D01*
X121769143Y-119197523D01*
X121816762Y-119245142D01*
X121864381Y-119340380D01*
X121864381Y-119435619D01*
X121816762Y-119530857D01*
X121769143Y-119578476D01*
X121673905Y-119626095D01*
X121483429Y-119673714D01*
X121245333Y-119673714D01*
X121054857Y-119626095D01*
X120959619Y-119578476D01*
X120912000Y-119530857D01*
X120864381Y-119435619D01*
X121197714Y-118673714D02*
X121864381Y-118673714D01*
X121292952Y-118673714D02*
X121245333Y-118626095D01*
X121197714Y-118530857D01*
X121197714Y-118387999D01*
X121245333Y-118292761D01*
X121340571Y-118245142D01*
X121864381Y-118245142D01*
X139533334Y-116689143D02*
X139485715Y-116736762D01*
X139342858Y-116784381D01*
X139247620Y-116784381D01*
X139104762Y-116736762D01*
X139009524Y-116641524D01*
X138961905Y-116546286D01*
X138914286Y-116355810D01*
X138914286Y-116212952D01*
X138961905Y-116022476D01*
X139009524Y-115927238D01*
X139104762Y-115832000D01*
X139247620Y-115784381D01*
X139342858Y-115784381D01*
X139485715Y-115832000D01*
X139533334Y-115879619D01*
X139866667Y-115784381D02*
X140485715Y-115784381D01*
X140152381Y-116165333D01*
X140295239Y-116165333D01*
X140390477Y-116212952D01*
X140438096Y-116260571D01*
X140485715Y-116355810D01*
X140485715Y-116593905D01*
X140438096Y-116689143D01*
X140390477Y-116736762D01*
X140295239Y-116784381D01*
X140009524Y-116784381D01*
X139914286Y-116736762D01*
X139866667Y-116689143D01*
X141517714Y-120880095D02*
X142184381Y-120880095D01*
X141136762Y-121118191D02*
X141851048Y-121356286D01*
X141851048Y-120737238D01*
X141184381Y-120451524D02*
X141184381Y-119784857D01*
X142184381Y-120213429D01*
X141517714Y-119403905D02*
X142184381Y-119403905D01*
X141612952Y-119403905D02*
X141565333Y-119356286D01*
X141517714Y-119261048D01*
X141517714Y-119118190D01*
X141565333Y-119022952D01*
X141660571Y-118975333D01*
X142184381Y-118975333D01*
X148677334Y-112625143D02*
X148629715Y-112672762D01*
X148486858Y-112720381D01*
X148391620Y-112720381D01*
X148248762Y-112672762D01*
X148153524Y-112577524D01*
X148105905Y-112482286D01*
X148058286Y-112291810D01*
X148058286Y-112148952D01*
X148105905Y-111958476D01*
X148153524Y-111863238D01*
X148248762Y-111768000D01*
X148391620Y-111720381D01*
X148486858Y-111720381D01*
X148629715Y-111768000D01*
X148677334Y-111815619D01*
X149534477Y-112053714D02*
X149534477Y-112720381D01*
X149296381Y-111672762D02*
X149058286Y-112387048D01*
X149677334Y-112387048D01*
X147264381Y-117228857D02*
X147264381Y-117800286D01*
X147264381Y-117514572D02*
X146264381Y-117514572D01*
X146407238Y-117609810D01*
X146502476Y-117705048D01*
X146550095Y-117800286D01*
X146264381Y-116609810D02*
X146264381Y-116514571D01*
X146312000Y-116419333D01*
X146359619Y-116371714D01*
X146454857Y-116324095D01*
X146645333Y-116276476D01*
X146883429Y-116276476D01*
X147073905Y-116324095D01*
X147169143Y-116371714D01*
X147216762Y-116419333D01*
X147264381Y-116514571D01*
X147264381Y-116609810D01*
X147216762Y-116705048D01*
X147169143Y-116752667D01*
X147073905Y-116800286D01*
X146883429Y-116847905D01*
X146645333Y-116847905D01*
X146454857Y-116800286D01*
X146359619Y-116752667D01*
X146312000Y-116705048D01*
X146264381Y-116609810D01*
X146597714Y-115419333D02*
X147264381Y-115419333D01*
X146597714Y-115847905D02*
X147121524Y-115847905D01*
X147216762Y-115800286D01*
X147264381Y-115705048D01*
X147264381Y-115562190D01*
X147216762Y-115466952D01*
X147169143Y-115419333D01*
X131849905Y-111704381D02*
X131849905Y-110704381D01*
X132088000Y-110704381D01*
X132230858Y-110752000D01*
X132326096Y-110847238D01*
X132373715Y-110942476D01*
X132421334Y-111132952D01*
X132421334Y-111275810D01*
X132373715Y-111466286D01*
X132326096Y-111561524D01*
X132230858Y-111656762D01*
X132088000Y-111704381D01*
X131849905Y-111704381D01*
X132802286Y-110799619D02*
X132849905Y-110752000D01*
X132945143Y-110704381D01*
X133183239Y-110704381D01*
X133278477Y-110752000D01*
X133326096Y-110799619D01*
X133373715Y-110894857D01*
X133373715Y-110990095D01*
X133326096Y-111132952D01*
X132754667Y-111704381D01*
X133373715Y-111704381D01*
X136088381Y-113545905D02*
X135088381Y-113545905D01*
X136088381Y-112974476D02*
X135516952Y-113403048D01*
X135088381Y-112974476D02*
X135659810Y-113545905D01*
X129554667Y-119062095D02*
X129554667Y-118585904D01*
X129840381Y-119157333D02*
X128840381Y-118824000D01*
X129840381Y-118490666D01*
D16*
X159371695Y-101945923D02*
X158558895Y-101945923D01*
X158558895Y-101636285D01*
X158597600Y-101558876D01*
X158636305Y-101520171D01*
X158713714Y-101481466D01*
X158829829Y-101481466D01*
X158907238Y-101520171D01*
X158945943Y-101558876D01*
X158984648Y-101636285D01*
X158984648Y-101945923D01*
X158636305Y-101171828D02*
X158597600Y-101133123D01*
X158558895Y-101055714D01*
X158558895Y-100862190D01*
X158597600Y-100784780D01*
X158636305Y-100746076D01*
X158713714Y-100707371D01*
X158791124Y-100707371D01*
X158907238Y-100746076D01*
X159371695Y-101210533D01*
X159371695Y-100707371D01*
X156604305Y-102594228D02*
X156565600Y-102555523D01*
X156526895Y-102478114D01*
X156526895Y-102284590D01*
X156565600Y-102207180D01*
X156604305Y-102168476D01*
X156681714Y-102129771D01*
X156759124Y-102129771D01*
X156875238Y-102168476D01*
X157339695Y-102632933D01*
X157339695Y-102129771D01*
X157339695Y-107209771D02*
X157339695Y-107674228D01*
X157339695Y-107441999D02*
X156526895Y-107441999D01*
X156643010Y-107519409D01*
X156720419Y-107596818D01*
X156759124Y-107674228D01*
X156526895Y-97552933D02*
X156526895Y-97049771D01*
X156836533Y-97320704D01*
X156836533Y-97204590D01*
X156875238Y-97127180D01*
X156913943Y-97088476D01*
X156991352Y-97049771D01*
X157184876Y-97049771D01*
X157262286Y-97088476D01*
X157300990Y-97127180D01*
X157339695Y-97204590D01*
X157339695Y-97436818D01*
X157300990Y-97514228D01*
X157262286Y-97552933D01*
X156797829Y-92047180D02*
X157339695Y-92047180D01*
X156488190Y-92240704D02*
X157068762Y-92434228D01*
X157068762Y-91931066D01*
D13*
X125499905Y-126436381D02*
X125499905Y-125436381D01*
X125880858Y-125436381D01*
X125976096Y-125484000D01*
X126023715Y-125531619D01*
X126071334Y-125626857D01*
X126071334Y-125769714D01*
X126023715Y-125864952D01*
X125976096Y-125912571D01*
X125880858Y-125960190D01*
X125499905Y-125960190D01*
X126404667Y-125436381D02*
X127023715Y-125436381D01*
X126690381Y-125817333D01*
X126833239Y-125817333D01*
X126928477Y-125864952D01*
X126976096Y-125912571D01*
X127023715Y-126007810D01*
X127023715Y-126245905D01*
X126976096Y-126341143D01*
X126928477Y-126388762D01*
X126833239Y-126436381D01*
X126547524Y-126436381D01*
X126452286Y-126388762D01*
X126404667Y-126341143D01*
X142398762Y-98337619D02*
X142303524Y-98290000D01*
X142208286Y-98194762D01*
X142065429Y-98051905D01*
X141970190Y-98004286D01*
X141874952Y-98004286D01*
X141922571Y-98242381D02*
X141827333Y-98194762D01*
X141732095Y-98099524D01*
X141684476Y-97909048D01*
X141684476Y-97575714D01*
X141732095Y-97385238D01*
X141827333Y-97290000D01*
X141922571Y-97242381D01*
X142113048Y-97242381D01*
X142208286Y-97290000D01*
X142303524Y-97385238D01*
X142351143Y-97575714D01*
X142351143Y-97909048D01*
X142303524Y-98099524D01*
X142208286Y-98194762D01*
X142113048Y-98242381D01*
X141922571Y-98242381D01*
X143303524Y-98242381D02*
X142732095Y-98242381D01*
X143017809Y-98242381D02*
X143017809Y-97242381D01*
X142922571Y-97385238D01*
X142827333Y-97480476D01*
X142732095Y-97528095D01*
X137771143Y-104822285D02*
X137818762Y-104869904D01*
X137866381Y-105012761D01*
X137866381Y-105107999D01*
X137818762Y-105250857D01*
X137723524Y-105346095D01*
X137628286Y-105393714D01*
X137437810Y-105441333D01*
X137294952Y-105441333D01*
X137104476Y-105393714D01*
X137009238Y-105346095D01*
X136914000Y-105250857D01*
X136866381Y-105107999D01*
X136866381Y-105012761D01*
X136914000Y-104869904D01*
X136961619Y-104822285D01*
X137866381Y-103822285D02*
X137390190Y-104155619D01*
X137866381Y-104393714D02*
X136866381Y-104393714D01*
X136866381Y-104012761D01*
X136914000Y-103917523D01*
X136961619Y-103869904D01*
X137056857Y-103822285D01*
X137199714Y-103822285D01*
X137294952Y-103869904D01*
X137342571Y-103917523D01*
X137390190Y-104012761D01*
X137390190Y-104393714D01*
X136866381Y-103203238D02*
X136866381Y-103012761D01*
X136914000Y-102917523D01*
X137009238Y-102822285D01*
X137199714Y-102774666D01*
X137533048Y-102774666D01*
X137723524Y-102822285D01*
X137818762Y-102917523D01*
X137866381Y-103012761D01*
X137866381Y-103203238D01*
X137818762Y-103298476D01*
X137723524Y-103393714D01*
X137533048Y-103441333D01*
X137199714Y-103441333D01*
X137009238Y-103393714D01*
X136914000Y-103298476D01*
X136866381Y-103203238D01*
X136866381Y-102441333D02*
X137866381Y-102203238D01*
X137152095Y-102012761D01*
X137866381Y-101822285D01*
X136866381Y-101584190D01*
X137342571Y-100869904D02*
X137390190Y-100727047D01*
X137437810Y-100679428D01*
X137533048Y-100631809D01*
X137675905Y-100631809D01*
X137771143Y-100679428D01*
X137818762Y-100727047D01*
X137866381Y-100822285D01*
X137866381Y-101203238D01*
X136866381Y-101203238D01*
X136866381Y-100869904D01*
X136914000Y-100774666D01*
X136961619Y-100727047D01*
X137056857Y-100679428D01*
X137152095Y-100679428D01*
X137247333Y-100727047D01*
X137294952Y-100774666D01*
X137342571Y-100869904D01*
X137342571Y-101203238D01*
X137580667Y-100250857D02*
X137580667Y-99774666D01*
X137866381Y-100346095D02*
X136866381Y-100012762D01*
X137866381Y-99679428D01*
X137866381Y-98774666D02*
X137390190Y-99108000D01*
X137866381Y-99346095D02*
X136866381Y-99346095D01*
X136866381Y-98965142D01*
X136914000Y-98869904D01*
X136961619Y-98822285D01*
X137056857Y-98774666D01*
X137199714Y-98774666D01*
X137294952Y-98822285D01*
X137342571Y-98869904D01*
X137390190Y-98965142D01*
X137390190Y-99346095D01*
X115657334Y-120594381D02*
X115324000Y-120118190D01*
X115085905Y-120594381D02*
X115085905Y-119594381D01*
X115466858Y-119594381D01*
X115562096Y-119642000D01*
X115609715Y-119689619D01*
X115657334Y-119784857D01*
X115657334Y-119927714D01*
X115609715Y-120022952D01*
X115562096Y-120070571D01*
X115466858Y-120118190D01*
X115085905Y-120118190D01*
X116609715Y-120594381D02*
X116038286Y-120594381D01*
X116324000Y-120594381D02*
X116324000Y-119594381D01*
X116228762Y-119737238D01*
X116133524Y-119832476D01*
X116038286Y-119880095D01*
X117633905Y-119594381D02*
X117729144Y-119594381D01*
X117824382Y-119642000D01*
X117872001Y-119689619D01*
X117919620Y-119784857D01*
X117967239Y-119975333D01*
X117967239Y-120213429D01*
X117919620Y-120403905D01*
X117872001Y-120499143D01*
X117824382Y-120546762D01*
X117729144Y-120594381D01*
X117633905Y-120594381D01*
X117538667Y-120546762D01*
X117491048Y-120499143D01*
X117443429Y-120403905D01*
X117395810Y-120213429D01*
X117395810Y-119975333D01*
X117443429Y-119784857D01*
X117491048Y-119689619D01*
X117538667Y-119642000D01*
X117633905Y-119594381D01*
X118395810Y-120499143D02*
X118443429Y-120546762D01*
X118395810Y-120594381D01*
X118348191Y-120546762D01*
X118395810Y-120499143D01*
X118395810Y-120594381D01*
X119062476Y-119594381D02*
X119157715Y-119594381D01*
X119252953Y-119642000D01*
X119300572Y-119689619D01*
X119348191Y-119784857D01*
X119395810Y-119975333D01*
X119395810Y-120213429D01*
X119348191Y-120403905D01*
X119300572Y-120499143D01*
X119252953Y-120546762D01*
X119157715Y-120594381D01*
X119062476Y-120594381D01*
X118967238Y-120546762D01*
X118919619Y-120499143D01*
X118872000Y-120403905D01*
X118824381Y-120213429D01*
X118824381Y-119975333D01*
X118872000Y-119784857D01*
X118919619Y-119689619D01*
X118967238Y-119642000D01*
X119062476Y-119594381D01*
X120348191Y-120594381D02*
X119776762Y-120594381D01*
X120062476Y-120594381D02*
X120062476Y-119594381D01*
X119967238Y-119737238D01*
X119872000Y-119832476D01*
X119776762Y-119880095D01*
X128357334Y-116784381D02*
X128024000Y-116308190D01*
X127785905Y-116784381D02*
X127785905Y-115784381D01*
X128166858Y-115784381D01*
X128262096Y-115832000D01*
X128309715Y-115879619D01*
X128357334Y-115974857D01*
X128357334Y-116117714D01*
X128309715Y-116212952D01*
X128262096Y-116260571D01*
X128166858Y-116308190D01*
X127785905Y-116308190D01*
X128738286Y-115879619D02*
X128785905Y-115832000D01*
X128881143Y-115784381D01*
X129119239Y-115784381D01*
X129214477Y-115832000D01*
X129262096Y-115879619D01*
X129309715Y-115974857D01*
X129309715Y-116070095D01*
X129262096Y-116212952D01*
X128690667Y-116784381D01*
X129309715Y-116784381D01*
X126944381Y-120515047D02*
X126944381Y-121086476D01*
X126944381Y-120800762D02*
X125944381Y-120800762D01*
X126087238Y-120896000D01*
X126182476Y-120991238D01*
X126230095Y-121086476D01*
X126944381Y-120086476D02*
X125944381Y-120086476D01*
X126563429Y-119991238D02*
X126944381Y-119705523D01*
X126277714Y-119705523D02*
X126658667Y-120086476D01*
X140041334Y-128468381D02*
X139708000Y-127992190D01*
X139469905Y-128468381D02*
X139469905Y-127468381D01*
X139850858Y-127468381D01*
X139946096Y-127516000D01*
X139993715Y-127563619D01*
X140041334Y-127658857D01*
X140041334Y-127801714D01*
X139993715Y-127896952D01*
X139946096Y-127944571D01*
X139850858Y-127992190D01*
X139469905Y-127992190D01*
X140374667Y-127468381D02*
X140993715Y-127468381D01*
X140660381Y-127849333D01*
X140803239Y-127849333D01*
X140898477Y-127896952D01*
X140946096Y-127944571D01*
X140993715Y-128039810D01*
X140993715Y-128277905D01*
X140946096Y-128373143D01*
X140898477Y-128420762D01*
X140803239Y-128468381D01*
X140517524Y-128468381D01*
X140422286Y-128420762D01*
X140374667Y-128373143D01*
X143676762Y-128468381D02*
X143105333Y-128468381D01*
X143391047Y-128468381D02*
X143391047Y-127468381D01*
X143295809Y-127611238D01*
X143200571Y-127706476D01*
X143105333Y-127754095D01*
X144295809Y-127468381D02*
X144391048Y-127468381D01*
X144486286Y-127516000D01*
X144533905Y-127563619D01*
X144581524Y-127658857D01*
X144629143Y-127849333D01*
X144629143Y-128087429D01*
X144581524Y-128277905D01*
X144533905Y-128373143D01*
X144486286Y-128420762D01*
X144391048Y-128468381D01*
X144295809Y-128468381D01*
X144200571Y-128420762D01*
X144152952Y-128373143D01*
X144105333Y-128277905D01*
X144057714Y-128087429D01*
X144057714Y-127849333D01*
X144105333Y-127658857D01*
X144152952Y-127563619D01*
X144200571Y-127516000D01*
X144295809Y-127468381D01*
X145057714Y-128468381D02*
X145057714Y-127468381D01*
X145152952Y-128087429D02*
X145438667Y-128468381D01*
X145438667Y-127801714D02*
X145057714Y-128182667D01*
X148677334Y-128722381D02*
X148344000Y-128246190D01*
X148105905Y-128722381D02*
X148105905Y-127722381D01*
X148486858Y-127722381D01*
X148582096Y-127770000D01*
X148629715Y-127817619D01*
X148677334Y-127912857D01*
X148677334Y-128055714D01*
X148629715Y-128150952D01*
X148582096Y-128198571D01*
X148486858Y-128246190D01*
X148105905Y-128246190D01*
X149534477Y-128055714D02*
X149534477Y-128722381D01*
X149296381Y-127674762D02*
X149058286Y-128389048D01*
X149677334Y-128389048D01*
X147264381Y-124071047D02*
X147264381Y-124642476D01*
X147264381Y-124356762D02*
X146264381Y-124356762D01*
X146407238Y-124452000D01*
X146502476Y-124547238D01*
X146550095Y-124642476D01*
X147264381Y-123642476D02*
X146264381Y-123642476D01*
X146883429Y-123547238D02*
X147264381Y-123261523D01*
X146597714Y-123261523D02*
X146978667Y-123642476D01*
X132334095Y-128484381D02*
X132334095Y-129293905D01*
X132381714Y-129389143D01*
X132429333Y-129436762D01*
X132524571Y-129484381D01*
X132715048Y-129484381D01*
X132810286Y-129436762D01*
X132857905Y-129389143D01*
X132905524Y-129293905D01*
X132905524Y-128484381D01*
X133905524Y-129484381D02*
X133334095Y-129484381D01*
X133619809Y-129484381D02*
X133619809Y-128484381D01*
X133524571Y-128627238D01*
X133429333Y-128722476D01*
X133334095Y-128770095D01*
X136485334Y-116689143D02*
X136437715Y-116736762D01*
X136294858Y-116784381D01*
X136199620Y-116784381D01*
X136056762Y-116736762D01*
X135961524Y-116641524D01*
X135913905Y-116546286D01*
X135866286Y-116355810D01*
X135866286Y-116212952D01*
X135913905Y-116022476D01*
X135961524Y-115927238D01*
X136056762Y-115832000D01*
X136199620Y-115784381D01*
X136294858Y-115784381D01*
X136437715Y-115832000D01*
X136485334Y-115879619D01*
X136866286Y-115879619D02*
X136913905Y-115832000D01*
X137009143Y-115784381D01*
X137247239Y-115784381D01*
X137342477Y-115832000D01*
X137390096Y-115879619D01*
X137437715Y-115974857D01*
X137437715Y-116070095D01*
X137390096Y-116212952D01*
X136818667Y-116784381D01*
X137437715Y-116784381D01*
X134659714Y-121134095D02*
X135326381Y-121134095D01*
X134278762Y-121372191D02*
X134993048Y-121610286D01*
X134993048Y-120991238D01*
X134326381Y-120705524D02*
X134326381Y-120038857D01*
X135326381Y-120467429D01*
X134659714Y-119657905D02*
X135326381Y-119657905D01*
X134754952Y-119657905D02*
X134707333Y-119610286D01*
X134659714Y-119515048D01*
X134659714Y-119372190D01*
X134707333Y-119276952D01*
X134802571Y-119229333D01*
X135326381Y-119229333D01*
M02*
