M48
INCH,TZ
T1C0.016
T2C0.040
T3C0.053
T4C0.070
%
G90
G05
T1
X41500Y-41500
X41500Y-41900
X41900Y-41500
X41900Y-41900
X42300Y-41500
X42300Y-41900
X43300Y-41500
X43300Y-41900
X43700Y-41500
X43700Y-41900
X44100Y-41500
X44100Y-41900
X46400Y-41100
X46400Y-41500
X46400Y-41900
X46400Y-42300
X46800Y-41100
X46800Y-41500
X46800Y-41900
X46800Y-42300
X47000Y-44100
X47200Y-41500
X47200Y-41900
X47200Y-42300
X47800Y-48200
X52200Y-47200
X52200Y-49200
X53800Y-45800
X53800Y-49600
X56000Y-49600
X57600Y-49600
X59200Y-47300
X60000Y-50100
X60000Y-50500
X60400Y-50100
X60400Y-50500
X60800Y-50100
X60800Y-50500
X61100Y-46000
X61200Y-44100
X61200Y-50100
X61200Y-50500
X61600Y-43700
X61600Y-44100
X61600Y-50100
X61600Y-50500
X62000Y-43700
X62000Y-44100
X62000Y-50100
X62000Y-50500
X62400Y-40900
X62400Y-41300
X62400Y-41700
X62400Y-42100
X62400Y-42500
X62400Y-42900
X62400Y-43300
X62400Y-43700
X62400Y-44100
X62400Y-50100
X62800Y-40900
X62800Y-41300
X62800Y-41700
X62800Y-42100
X62800Y-42500
X62800Y-42900
X62800Y-43300
X62800Y-43700
X62800Y-44100
X62800Y-44600
X62800Y-45000
X62800Y-45400
X62800Y-45800
X62800Y-46200
X62800Y-46600
X62800Y-47000
X62800Y-47400
X62800Y-47700
X62800Y-48100
X62800Y-48500
X62800Y-48900
X62800Y-49300
X62800Y-49700
X62800Y-50100
T2
X45600Y-49600
X46600Y-49600
X47600Y-49600
X48600Y-49600
T3
X41785Y-39800
X42785Y-38800
X42785Y-40800
X43785Y-39800
X47816Y-39800
X48816Y-38800
X48816Y-40800
X49816Y-39800
T4
X42800Y-43216
X42800Y-45184
X42800Y-47216
X42800Y-49184
X60600Y-36916
X60600Y-38884
X60600Y-40916
X60600Y-42884
T0
M30
