%TF.GenerationSoftware,KiCad,Pcbnew,4.0.1-2.fc23-product*%
%TF.CreationDate,2016-01-01T21:05:35+01:00*%
%TF.ProjectId,sunpowered,73756E706F77657265642E6B69636164,rev?*%
%TF.FileFunction,Soldermask,Top*%
%FSLAX46Y46*%
G04 Gerber Fmt 4.6, Leading zero omitted, Abs format (unit mm)*
G04 Created by KiCad (PCBNEW 4.0.1-2.fc23-product) date Fri 01 Jan 2016 21:05:35 CET*
%MOMM*%
G01*
G04 APERTURE LIST*
%ADD10C,0.100000*%
%ADD11R,1.651000X3.048000*%
%ADD12R,6.096000X6.096000*%
%ADD13C,2.794000*%
%ADD14R,3.048000X1.651000*%
%ADD15C,2.349500*%
%ADD16R,1.600000X2.000000*%
%ADD17R,2.301240X2.499360*%
%ADD18R,1.727200X2.032000*%
%ADD19O,1.727200X2.032000*%
%ADD20R,2.000000X1.700000*%
%ADD21R,1.700000X2.000000*%
%ADD22R,1.998980X0.690880*%
G04 APERTURE END LIST*
D10*
D11*
X157480000Y-116840000D03*
D12*
X155194000Y-123190000D03*
D11*
X152908000Y-116840000D03*
D13*
X108712000Y-109768000D03*
X108712000Y-114768000D03*
X108712000Y-124928000D03*
X108712000Y-119928000D03*
D14*
X119380000Y-109474000D03*
D12*
X125730000Y-111760000D03*
D14*
X119380000Y-114046000D03*
D15*
X121452640Y-101092000D03*
X126532640Y-101092000D03*
X111213900Y-101092000D03*
X106133900Y-101092000D03*
X123992640Y-98552000D03*
X123992640Y-103632000D03*
X108673900Y-98552000D03*
X108673900Y-103632000D03*
D16*
X123444000Y-118396000D03*
X123444000Y-122396000D03*
X139700000Y-118396000D03*
X139700000Y-122396000D03*
X148844000Y-118332000D03*
X148844000Y-114332000D03*
D17*
X132588000Y-113675160D03*
X132588000Y-117972840D03*
D13*
X153924000Y-108926000D03*
X153924000Y-103926000D03*
X153924000Y-93766000D03*
X153924000Y-98766000D03*
D18*
X123444000Y-125984000D03*
D19*
X120904000Y-125984000D03*
X118364000Y-125984000D03*
X115824000Y-125984000D03*
D11*
X140208000Y-108204000D03*
D12*
X142494000Y-101854000D03*
D11*
X144780000Y-108204000D03*
D20*
X119348000Y-122428000D03*
X115348000Y-122428000D03*
D21*
X128524000Y-118396000D03*
X128524000Y-122396000D03*
D20*
X140240000Y-125984000D03*
X144240000Y-125984000D03*
D21*
X148844000Y-121952000D03*
X148844000Y-125952000D03*
D22*
X131041140Y-125034040D03*
X131041140Y-125984000D03*
X131041140Y-126933960D03*
X134642860Y-126933960D03*
X134642860Y-125984000D03*
X134642860Y-125034040D03*
D16*
X136652000Y-118396000D03*
X136652000Y-122396000D03*
M02*
