%TF.GenerationSoftware,KiCad,Pcbnew,4.0.1-2.fc23-product*%
%TF.CreationDate,2015-12-31T19:29:04+01:00*%
%TF.ProjectId,sunpowered,73756E706F77657265642E6B69636164,rev?*%
%TF.FileFunction,Copper,L2,Bot,Signal*%
%FSLAX46Y46*%
G04 Gerber Fmt 4.6, Leading zero omitted, Abs format (unit mm)*
G04 Created by KiCad (PCBNEW 4.0.1-2.fc23-product) date Thu 31 Dec 2015 19:29:04 CET*
%MOMM*%
G01*
G04 APERTURE LIST*
%ADD10C,0.100000*%
%ADD11C,2.794000*%
%ADD12C,2.349500*%
%ADD13R,1.727200X2.032000*%
%ADD14O,1.727200X2.032000*%
%ADD15C,0.600000*%
%ADD16C,0.250000*%
%ADD17C,0.254000*%
G04 APERTURE END LIST*
D10*
D11*
X108712000Y-109768000D03*
X108712000Y-114768000D03*
X108712000Y-124928000D03*
X108712000Y-119928000D03*
D12*
X121452640Y-101092000D03*
X126532640Y-101092000D03*
X111213900Y-101092000D03*
X106133900Y-101092000D03*
X123992640Y-98552000D03*
X123992640Y-103632000D03*
X108673900Y-98552000D03*
X108673900Y-103632000D03*
D11*
X153924000Y-108926000D03*
X153924000Y-103926000D03*
X153924000Y-93766000D03*
X153924000Y-98766000D03*
D13*
X123444000Y-125984000D03*
D14*
X120904000Y-125984000D03*
X118364000Y-125984000D03*
X115824000Y-125984000D03*
D15*
X150368000Y-120142000D03*
X155194000Y-116840000D03*
X136652000Y-116332000D03*
X136652000Y-125984000D03*
X121412000Y-122428000D03*
X132588000Y-119888000D03*
X132588000Y-124968000D03*
X105410000Y-105410000D03*
X105410000Y-106426000D03*
X106426000Y-106426000D03*
X106426000Y-105410000D03*
X107442000Y-105410000D03*
X107442000Y-106426000D03*
X109982000Y-106426000D03*
X110998000Y-106426000D03*
X112014000Y-106426000D03*
X112014000Y-105410000D03*
X110998000Y-105410000D03*
X109982000Y-105410000D03*
X117856000Y-104394000D03*
X118872000Y-104394000D03*
X118872000Y-105410000D03*
X119888000Y-105410000D03*
X119888000Y-106426000D03*
X118872000Y-106426000D03*
X117856000Y-106426000D03*
X117856000Y-105410000D03*
X117856000Y-107442000D03*
X118872000Y-107442000D03*
X119888000Y-107442000D03*
X119380000Y-112014000D03*
X159512000Y-112014000D03*
X159512000Y-110998000D03*
X152400000Y-127254000D03*
X152400000Y-128270000D03*
X153416000Y-128270000D03*
X153416000Y-127254000D03*
X154432000Y-127254000D03*
X154432000Y-128270000D03*
X155448000Y-128270000D03*
X155448000Y-127254000D03*
X156464000Y-127254000D03*
X156464000Y-128270000D03*
X157480000Y-128270000D03*
X157480000Y-127254000D03*
X158496000Y-127254000D03*
X159512000Y-127254000D03*
X159512000Y-126238000D03*
X159512000Y-125222000D03*
X159512000Y-124206000D03*
X159512000Y-123190000D03*
X159512000Y-122174000D03*
X159512000Y-121158000D03*
X159512000Y-113284000D03*
X159512000Y-114300000D03*
X159512000Y-115316000D03*
X159512000Y-116332000D03*
X159512000Y-117348000D03*
X159512000Y-118364000D03*
X159512000Y-119380000D03*
X159512000Y-120396000D03*
X156464000Y-112014000D03*
X156464000Y-110998000D03*
X155448000Y-112014000D03*
X157480000Y-110998000D03*
X157480000Y-112014000D03*
X158496000Y-112014000D03*
X158496000Y-110998000D03*
X158496000Y-109982000D03*
X159512000Y-109982000D03*
X158496000Y-108966000D03*
X159512000Y-108966000D03*
X158496000Y-107950000D03*
X159512000Y-107950000D03*
X158496000Y-106934000D03*
X159512000Y-106934000D03*
X158496000Y-105918000D03*
X159512000Y-105918000D03*
X158496000Y-104902000D03*
X159512000Y-104902000D03*
X158496000Y-103886000D03*
X159512000Y-103886000D03*
X146304000Y-125984000D03*
X142240000Y-125984000D03*
D16*
X151892000Y-120142000D02*
X150368000Y-120142000D01*
X155194000Y-116840000D02*
X151892000Y-120142000D01*
X136652000Y-125984000D02*
X136652000Y-116332000D01*
X123444000Y-125984000D02*
X123444000Y-123444000D01*
X123444000Y-123444000D02*
X122428000Y-122428000D01*
X122428000Y-122428000D02*
X121412000Y-122428000D01*
X132588000Y-124968000D02*
X132588000Y-119888000D01*
X108673900Y-103632000D02*
X108673900Y-104101900D01*
X108673900Y-104101900D02*
X109982000Y-105410000D01*
X106426000Y-106426000D02*
X105410000Y-106426000D01*
X107442000Y-105410000D02*
X106426000Y-105410000D01*
X109982000Y-106426000D02*
X107442000Y-106426000D01*
X112014000Y-106426000D02*
X110998000Y-106426000D01*
X110998000Y-105410000D02*
X112014000Y-105410000D01*
X108673900Y-103632000D02*
X108673900Y-109729900D01*
X108673900Y-109729900D02*
X108712000Y-109768000D01*
X121452640Y-101092000D02*
X121158000Y-101092000D01*
X121158000Y-101092000D02*
X117856000Y-104394000D01*
X118872000Y-104394000D02*
X118872000Y-105410000D01*
X119888000Y-105410000D02*
X119888000Y-106426000D01*
X118872000Y-106426000D02*
X117856000Y-106426000D01*
X117856000Y-105410000D02*
X117856000Y-107442000D01*
X118872000Y-107442000D02*
X119888000Y-107442000D01*
X120904000Y-125984000D02*
X120904000Y-125730000D01*
X120904000Y-125730000D02*
X119380000Y-124206000D01*
X119380000Y-124206000D02*
X119380000Y-112014000D01*
X118364000Y-125984000D02*
X115824000Y-125984000D01*
X159512000Y-112014000D02*
X159512000Y-110998000D01*
X152400000Y-128270000D02*
X153416000Y-128270000D01*
X153416000Y-127254000D02*
X154432000Y-127254000D01*
X154432000Y-128270000D02*
X155448000Y-128270000D01*
X155448000Y-127254000D02*
X156464000Y-127254000D01*
X156464000Y-128270000D02*
X157480000Y-128270000D01*
X157480000Y-127254000D02*
X158496000Y-127254000D01*
X159512000Y-127254000D02*
X159512000Y-126238000D01*
X159512000Y-125222000D02*
X159512000Y-124206000D01*
X159512000Y-123190000D02*
X159512000Y-122174000D01*
X152400000Y-127254000D02*
X152400000Y-125730000D01*
X159512000Y-114300000D02*
X159512000Y-113284000D01*
X159512000Y-116332000D02*
X159512000Y-115316000D01*
X159512000Y-118364000D02*
X159512000Y-117348000D01*
X159512000Y-120396000D02*
X159512000Y-119380000D01*
X156464000Y-110998000D02*
X157480000Y-110998000D01*
X156464000Y-112014000D02*
X156464000Y-110998000D01*
X157480000Y-110998000D02*
X158496000Y-110998000D01*
X158496000Y-110998000D02*
X158496000Y-109982000D01*
X159512000Y-109982000D02*
X158496000Y-109982000D01*
X158456000Y-108926000D02*
X158496000Y-108966000D01*
X158456000Y-108926000D02*
X153924000Y-108926000D01*
X159512000Y-107950000D02*
X158496000Y-107950000D01*
X158496000Y-106934000D02*
X154472000Y-103926000D01*
X159512000Y-105918000D02*
X158496000Y-105918000D01*
X157520000Y-103926000D02*
X158496000Y-104902000D01*
X157520000Y-103926000D02*
X153924000Y-103926000D01*
X159512000Y-103886000D02*
X158496000Y-103886000D01*
X153924000Y-103926000D02*
X154472000Y-103926000D01*
X142240000Y-125984000D02*
X146304000Y-125984000D01*
D17*
G36*
X113157000Y-116713000D02*
X103251000Y-116713000D01*
X103251000Y-97155000D01*
X113157000Y-97155000D01*
X113157000Y-116713000D01*
X113157000Y-116713000D01*
G37*
X113157000Y-116713000D02*
X103251000Y-116713000D01*
X103251000Y-97155000D01*
X113157000Y-97155000D01*
X113157000Y-116713000D01*
G36*
X129413000Y-105029000D02*
X120904000Y-105029000D01*
X120854590Y-105039006D01*
X120812965Y-105067447D01*
X120785685Y-105109841D01*
X120777000Y-105156000D01*
X120777000Y-108585000D01*
X116967000Y-108585000D01*
X116967000Y-97155000D01*
X129413000Y-97155000D01*
X129413000Y-105029000D01*
X129413000Y-105029000D01*
G37*
X129413000Y-105029000D02*
X120904000Y-105029000D01*
X120854590Y-105039006D01*
X120812965Y-105067447D01*
X120785685Y-105109841D01*
X120777000Y-105156000D01*
X120777000Y-108585000D01*
X116967000Y-108585000D01*
X116967000Y-97155000D01*
X129413000Y-97155000D01*
X129413000Y-105029000D01*
G36*
X148717000Y-131395000D02*
X106165963Y-131395000D01*
X106541843Y-130832455D01*
X106697881Y-130048000D01*
X106541843Y-129263545D01*
X106097485Y-128598515D01*
X105432455Y-128154157D01*
X104648000Y-127998119D01*
X103863545Y-128154157D01*
X103198515Y-128598515D01*
X102793000Y-129205412D01*
X102793000Y-117983000D01*
X114300000Y-117983000D01*
X114349410Y-117972994D01*
X114391035Y-117944553D01*
X114418315Y-117902159D01*
X114427000Y-117856000D01*
X114427000Y-112199167D01*
X118444838Y-112199167D01*
X118586883Y-112542943D01*
X118620000Y-112576118D01*
X118620000Y-124206000D01*
X118677852Y-124496839D01*
X118842599Y-124743401D01*
X119487203Y-125388005D01*
X119405400Y-125799255D01*
X119405400Y-126168745D01*
X119519474Y-126742234D01*
X119844330Y-127228415D01*
X120330511Y-127553271D01*
X120904000Y-127667345D01*
X121477489Y-127553271D01*
X121963670Y-127228415D01*
X121973243Y-127214087D01*
X121977238Y-127235317D01*
X122116310Y-127451441D01*
X122328510Y-127596431D01*
X122580400Y-127647440D01*
X124307600Y-127647440D01*
X124542917Y-127603162D01*
X124759041Y-127464090D01*
X124904031Y-127251890D01*
X124955040Y-127000000D01*
X124955040Y-124968000D01*
X124910762Y-124732683D01*
X124771690Y-124516559D01*
X124559490Y-124371569D01*
X124307600Y-124320560D01*
X124204000Y-124320560D01*
X124204000Y-123444000D01*
X124146148Y-123153161D01*
X123981401Y-122906599D01*
X122965401Y-121890599D01*
X122718839Y-121725852D01*
X122428000Y-121668000D01*
X121974463Y-121668000D01*
X121942327Y-121635808D01*
X121598799Y-121493162D01*
X121226833Y-121492838D01*
X120883057Y-121634883D01*
X120619808Y-121897673D01*
X120477162Y-122241201D01*
X120476838Y-122613167D01*
X120618883Y-122956943D01*
X120881673Y-123220192D01*
X121225201Y-123362838D01*
X121597167Y-123363162D01*
X121940943Y-123221117D01*
X121974118Y-123188000D01*
X122113198Y-123188000D01*
X122684000Y-123758802D01*
X122684000Y-124320560D01*
X122580400Y-124320560D01*
X122345083Y-124364838D01*
X122128959Y-124503910D01*
X121983969Y-124716110D01*
X121975600Y-124757439D01*
X121963670Y-124739585D01*
X121477489Y-124414729D01*
X120904000Y-124300655D01*
X120608279Y-124359477D01*
X120140000Y-123891198D01*
X120140000Y-120073167D01*
X131652838Y-120073167D01*
X131794883Y-120416943D01*
X131828000Y-120450118D01*
X131828000Y-124405537D01*
X131795808Y-124437673D01*
X131653162Y-124781201D01*
X131652838Y-125153167D01*
X131794883Y-125496943D01*
X132057673Y-125760192D01*
X132401201Y-125902838D01*
X132773167Y-125903162D01*
X133116943Y-125761117D01*
X133380192Y-125498327D01*
X133522838Y-125154799D01*
X133523162Y-124782833D01*
X133381117Y-124439057D01*
X133348000Y-124405882D01*
X133348000Y-120450463D01*
X133380192Y-120418327D01*
X133522838Y-120074799D01*
X133523162Y-119702833D01*
X133381117Y-119359057D01*
X133118327Y-119095808D01*
X132774799Y-118953162D01*
X132402833Y-118952838D01*
X132059057Y-119094883D01*
X131795808Y-119357673D01*
X131653162Y-119701201D01*
X131652838Y-120073167D01*
X120140000Y-120073167D01*
X120140000Y-116517167D01*
X135716838Y-116517167D01*
X135858883Y-116860943D01*
X135892000Y-116894118D01*
X135892000Y-125421537D01*
X135859808Y-125453673D01*
X135717162Y-125797201D01*
X135716838Y-126169167D01*
X135858883Y-126512943D01*
X136121673Y-126776192D01*
X136465201Y-126918838D01*
X136837167Y-126919162D01*
X137180943Y-126777117D01*
X137444192Y-126514327D01*
X137586838Y-126170799D01*
X137586839Y-126169167D01*
X141304838Y-126169167D01*
X141446883Y-126512943D01*
X141709673Y-126776192D01*
X142053201Y-126918838D01*
X142425167Y-126919162D01*
X142768943Y-126777117D01*
X142802118Y-126744000D01*
X145741537Y-126744000D01*
X145773673Y-126776192D01*
X146117201Y-126918838D01*
X146489167Y-126919162D01*
X146832943Y-126777117D01*
X147096192Y-126514327D01*
X147238838Y-126170799D01*
X147239162Y-125798833D01*
X147097117Y-125455057D01*
X146834327Y-125191808D01*
X146490799Y-125049162D01*
X146118833Y-125048838D01*
X145775057Y-125190883D01*
X145741882Y-125224000D01*
X142802463Y-125224000D01*
X142770327Y-125191808D01*
X142426799Y-125049162D01*
X142054833Y-125048838D01*
X141711057Y-125190883D01*
X141447808Y-125453673D01*
X141305162Y-125797201D01*
X141304838Y-126169167D01*
X137586839Y-126169167D01*
X137587162Y-125798833D01*
X137445117Y-125455057D01*
X137412000Y-125421882D01*
X137412000Y-116894463D01*
X137444192Y-116862327D01*
X137586838Y-116518799D01*
X137587162Y-116146833D01*
X137445117Y-115803057D01*
X137182327Y-115539808D01*
X136838799Y-115397162D01*
X136466833Y-115396838D01*
X136123057Y-115538883D01*
X135859808Y-115801673D01*
X135717162Y-116145201D01*
X135716838Y-116517167D01*
X120140000Y-116517167D01*
X120140000Y-112576463D01*
X120172192Y-112544327D01*
X120314838Y-112200799D01*
X120315162Y-111828833D01*
X120173117Y-111485057D01*
X119910327Y-111221808D01*
X119566799Y-111079162D01*
X119194833Y-111078838D01*
X118851057Y-111220883D01*
X118587808Y-111483673D01*
X118445162Y-111827201D01*
X118444838Y-112199167D01*
X114427000Y-112199167D01*
X114427000Y-110363000D01*
X122428000Y-110363000D01*
X122477410Y-110352994D01*
X122519035Y-110324553D01*
X122546315Y-110282159D01*
X122555000Y-110236000D01*
X122555000Y-106807000D01*
X131064000Y-106807000D01*
X131113410Y-106796994D01*
X131155035Y-106768553D01*
X131182315Y-106726159D01*
X131191000Y-106680000D01*
X131191000Y-95504000D01*
X131180994Y-95454590D01*
X131152553Y-95412965D01*
X131110159Y-95385685D01*
X131064000Y-95377000D01*
X102793000Y-95377000D01*
X102793000Y-92282588D01*
X103198515Y-92889485D01*
X103863545Y-93333843D01*
X104648000Y-93489881D01*
X105432455Y-93333843D01*
X106097485Y-92889485D01*
X106541843Y-92224455D01*
X106697881Y-91440000D01*
X106541843Y-90655545D01*
X106165963Y-90093000D01*
X148717000Y-90093000D01*
X148717000Y-131395000D01*
X148717000Y-131395000D01*
G37*
X148717000Y-131395000D02*
X106165963Y-131395000D01*
X106541843Y-130832455D01*
X106697881Y-130048000D01*
X106541843Y-129263545D01*
X106097485Y-128598515D01*
X105432455Y-128154157D01*
X104648000Y-127998119D01*
X103863545Y-128154157D01*
X103198515Y-128598515D01*
X102793000Y-129205412D01*
X102793000Y-117983000D01*
X114300000Y-117983000D01*
X114349410Y-117972994D01*
X114391035Y-117944553D01*
X114418315Y-117902159D01*
X114427000Y-117856000D01*
X114427000Y-112199167D01*
X118444838Y-112199167D01*
X118586883Y-112542943D01*
X118620000Y-112576118D01*
X118620000Y-124206000D01*
X118677852Y-124496839D01*
X118842599Y-124743401D01*
X119487203Y-125388005D01*
X119405400Y-125799255D01*
X119405400Y-126168745D01*
X119519474Y-126742234D01*
X119844330Y-127228415D01*
X120330511Y-127553271D01*
X120904000Y-127667345D01*
X121477489Y-127553271D01*
X121963670Y-127228415D01*
X121973243Y-127214087D01*
X121977238Y-127235317D01*
X122116310Y-127451441D01*
X122328510Y-127596431D01*
X122580400Y-127647440D01*
X124307600Y-127647440D01*
X124542917Y-127603162D01*
X124759041Y-127464090D01*
X124904031Y-127251890D01*
X124955040Y-127000000D01*
X124955040Y-124968000D01*
X124910762Y-124732683D01*
X124771690Y-124516559D01*
X124559490Y-124371569D01*
X124307600Y-124320560D01*
X124204000Y-124320560D01*
X124204000Y-123444000D01*
X124146148Y-123153161D01*
X123981401Y-122906599D01*
X122965401Y-121890599D01*
X122718839Y-121725852D01*
X122428000Y-121668000D01*
X121974463Y-121668000D01*
X121942327Y-121635808D01*
X121598799Y-121493162D01*
X121226833Y-121492838D01*
X120883057Y-121634883D01*
X120619808Y-121897673D01*
X120477162Y-122241201D01*
X120476838Y-122613167D01*
X120618883Y-122956943D01*
X120881673Y-123220192D01*
X121225201Y-123362838D01*
X121597167Y-123363162D01*
X121940943Y-123221117D01*
X121974118Y-123188000D01*
X122113198Y-123188000D01*
X122684000Y-123758802D01*
X122684000Y-124320560D01*
X122580400Y-124320560D01*
X122345083Y-124364838D01*
X122128959Y-124503910D01*
X121983969Y-124716110D01*
X121975600Y-124757439D01*
X121963670Y-124739585D01*
X121477489Y-124414729D01*
X120904000Y-124300655D01*
X120608279Y-124359477D01*
X120140000Y-123891198D01*
X120140000Y-120073167D01*
X131652838Y-120073167D01*
X131794883Y-120416943D01*
X131828000Y-120450118D01*
X131828000Y-124405537D01*
X131795808Y-124437673D01*
X131653162Y-124781201D01*
X131652838Y-125153167D01*
X131794883Y-125496943D01*
X132057673Y-125760192D01*
X132401201Y-125902838D01*
X132773167Y-125903162D01*
X133116943Y-125761117D01*
X133380192Y-125498327D01*
X133522838Y-125154799D01*
X133523162Y-124782833D01*
X133381117Y-124439057D01*
X133348000Y-124405882D01*
X133348000Y-120450463D01*
X133380192Y-120418327D01*
X133522838Y-120074799D01*
X133523162Y-119702833D01*
X133381117Y-119359057D01*
X133118327Y-119095808D01*
X132774799Y-118953162D01*
X132402833Y-118952838D01*
X132059057Y-119094883D01*
X131795808Y-119357673D01*
X131653162Y-119701201D01*
X131652838Y-120073167D01*
X120140000Y-120073167D01*
X120140000Y-116517167D01*
X135716838Y-116517167D01*
X135858883Y-116860943D01*
X135892000Y-116894118D01*
X135892000Y-125421537D01*
X135859808Y-125453673D01*
X135717162Y-125797201D01*
X135716838Y-126169167D01*
X135858883Y-126512943D01*
X136121673Y-126776192D01*
X136465201Y-126918838D01*
X136837167Y-126919162D01*
X137180943Y-126777117D01*
X137444192Y-126514327D01*
X137586838Y-126170799D01*
X137586839Y-126169167D01*
X141304838Y-126169167D01*
X141446883Y-126512943D01*
X141709673Y-126776192D01*
X142053201Y-126918838D01*
X142425167Y-126919162D01*
X142768943Y-126777117D01*
X142802118Y-126744000D01*
X145741537Y-126744000D01*
X145773673Y-126776192D01*
X146117201Y-126918838D01*
X146489167Y-126919162D01*
X146832943Y-126777117D01*
X147096192Y-126514327D01*
X147238838Y-126170799D01*
X147239162Y-125798833D01*
X147097117Y-125455057D01*
X146834327Y-125191808D01*
X146490799Y-125049162D01*
X146118833Y-125048838D01*
X145775057Y-125190883D01*
X145741882Y-125224000D01*
X142802463Y-125224000D01*
X142770327Y-125191808D01*
X142426799Y-125049162D01*
X142054833Y-125048838D01*
X141711057Y-125190883D01*
X141447808Y-125453673D01*
X141305162Y-125797201D01*
X141304838Y-126169167D01*
X137586839Y-126169167D01*
X137587162Y-125798833D01*
X137445117Y-125455057D01*
X137412000Y-125421882D01*
X137412000Y-116894463D01*
X137444192Y-116862327D01*
X137586838Y-116518799D01*
X137587162Y-116146833D01*
X137445117Y-115803057D01*
X137182327Y-115539808D01*
X136838799Y-115397162D01*
X136466833Y-115396838D01*
X136123057Y-115538883D01*
X135859808Y-115801673D01*
X135717162Y-116145201D01*
X135716838Y-116517167D01*
X120140000Y-116517167D01*
X120140000Y-112576463D01*
X120172192Y-112544327D01*
X120314838Y-112200799D01*
X120315162Y-111828833D01*
X120173117Y-111485057D01*
X119910327Y-111221808D01*
X119566799Y-111079162D01*
X119194833Y-111078838D01*
X118851057Y-111220883D01*
X118587808Y-111483673D01*
X118445162Y-111827201D01*
X118444838Y-112199167D01*
X114427000Y-112199167D01*
X114427000Y-110363000D01*
X122428000Y-110363000D01*
X122477410Y-110352994D01*
X122519035Y-110324553D01*
X122546315Y-110282159D01*
X122555000Y-110236000D01*
X122555000Y-106807000D01*
X131064000Y-106807000D01*
X131113410Y-106796994D01*
X131155035Y-106768553D01*
X131182315Y-106726159D01*
X131191000Y-106680000D01*
X131191000Y-95504000D01*
X131180994Y-95454590D01*
X131152553Y-95412965D01*
X131110159Y-95385685D01*
X131064000Y-95377000D01*
X102793000Y-95377000D01*
X102793000Y-92282588D01*
X103198515Y-92889485D01*
X103863545Y-93333843D01*
X104648000Y-93489881D01*
X105432455Y-93333843D01*
X106097485Y-92889485D01*
X106541843Y-92224455D01*
X106697881Y-91440000D01*
X106541843Y-90655545D01*
X106165963Y-90093000D01*
X148717000Y-90093000D01*
X148717000Y-131395000D01*
G36*
X160655000Y-128224012D02*
X160550455Y-128154157D01*
X159766000Y-127998119D01*
X158981545Y-128154157D01*
X158316515Y-128598515D01*
X158111729Y-128905000D01*
X151511000Y-128905000D01*
X151511000Y-121469628D01*
X152364738Y-120722607D01*
X152429401Y-120679401D01*
X152536391Y-120572411D01*
X153463718Y-119761000D01*
X158750000Y-119761000D01*
X158799410Y-119750994D01*
X158841035Y-119722553D01*
X158868315Y-119680159D01*
X158877000Y-119634000D01*
X158877000Y-113284000D01*
X158866994Y-113234590D01*
X158838553Y-113192965D01*
X158796159Y-113165685D01*
X158750000Y-113157000D01*
X154983575Y-113157000D01*
X152731970Y-111405752D01*
X152686826Y-111383316D01*
X152654000Y-111379000D01*
X151511000Y-111379000D01*
X151511000Y-101981000D01*
X160655000Y-101981000D01*
X160655000Y-128224012D01*
X160655000Y-128224012D01*
G37*
X160655000Y-128224012D02*
X160550455Y-128154157D01*
X159766000Y-127998119D01*
X158981545Y-128154157D01*
X158316515Y-128598515D01*
X158111729Y-128905000D01*
X151511000Y-128905000D01*
X151511000Y-121469628D01*
X152364738Y-120722607D01*
X152429401Y-120679401D01*
X152536391Y-120572411D01*
X153463718Y-119761000D01*
X158750000Y-119761000D01*
X158799410Y-119750994D01*
X158841035Y-119722553D01*
X158868315Y-119680159D01*
X158877000Y-119634000D01*
X158877000Y-113284000D01*
X158866994Y-113234590D01*
X158838553Y-113192965D01*
X158796159Y-113165685D01*
X158750000Y-113157000D01*
X154983575Y-113157000D01*
X152731970Y-111405752D01*
X152686826Y-111383316D01*
X152654000Y-111379000D01*
X151511000Y-111379000D01*
X151511000Y-101981000D01*
X160655000Y-101981000D01*
X160655000Y-128224012D01*
M02*
