%TF.GenerationSoftware,KiCad,Pcbnew,4.0.1-2.fc23-product*%
%TF.CreationDate,2015-12-31T19:29:04+01:00*%
%TF.ProjectId,sunpowered,73756E706F77657265642E6B69636164,rev?*%
%TF.FileFunction,Copper,L1,Top,Signal*%
%FSLAX46Y46*%
G04 Gerber Fmt 4.6, Leading zero omitted, Abs format (unit mm)*
G04 Created by KiCad (PCBNEW 4.0.1-2.fc23-product) date Thu 31 Dec 2015 19:29:04 CET*
%MOMM*%
G01*
G04 APERTURE LIST*
%ADD10C,0.100000*%
%ADD11R,1.651000X3.048000*%
%ADD12R,6.096000X6.096000*%
%ADD13C,2.794000*%
%ADD14R,3.048000X1.651000*%
%ADD15C,2.349500*%
%ADD16R,1.600000X2.000000*%
%ADD17R,2.301240X2.499360*%
%ADD18R,1.727200X2.032000*%
%ADD19O,1.727200X2.032000*%
%ADD20R,2.000000X1.700000*%
%ADD21R,1.700000X2.000000*%
%ADD22R,1.998980X0.690880*%
%ADD23C,0.600000*%
%ADD24C,0.250000*%
%ADD25C,0.254000*%
G04 APERTURE END LIST*
D10*
D11*
X157480000Y-116840000D03*
D12*
X155194000Y-123190000D03*
D11*
X152908000Y-116840000D03*
D13*
X108712000Y-109768000D03*
X108712000Y-114768000D03*
X108712000Y-124928000D03*
X108712000Y-119928000D03*
D14*
X119380000Y-109474000D03*
D12*
X125730000Y-111760000D03*
D14*
X119380000Y-114046000D03*
D15*
X121452640Y-101092000D03*
X126532640Y-101092000D03*
X111213900Y-101092000D03*
X106133900Y-101092000D03*
X123992640Y-98552000D03*
X123992640Y-103632000D03*
X108673900Y-98552000D03*
X108673900Y-103632000D03*
D16*
X123444000Y-118396000D03*
X123444000Y-122396000D03*
X139700000Y-118396000D03*
X139700000Y-122396000D03*
X148844000Y-118332000D03*
X148844000Y-114332000D03*
D17*
X132588000Y-113675160D03*
X132588000Y-117972840D03*
D13*
X153924000Y-108926000D03*
X153924000Y-103926000D03*
X153924000Y-93766000D03*
X153924000Y-98766000D03*
D18*
X123444000Y-125984000D03*
D19*
X120904000Y-125984000D03*
X118364000Y-125984000D03*
X115824000Y-125984000D03*
D11*
X140208000Y-108204000D03*
D12*
X142494000Y-101854000D03*
D11*
X144780000Y-108204000D03*
D20*
X119348000Y-122428000D03*
X115348000Y-122428000D03*
D21*
X128524000Y-118396000D03*
X128524000Y-122396000D03*
D20*
X140240000Y-125984000D03*
X144240000Y-125984000D03*
D21*
X148844000Y-121952000D03*
X148844000Y-125952000D03*
D22*
X131041140Y-125034040D03*
X131041140Y-125984000D03*
X131041140Y-126933960D03*
X134642860Y-126933960D03*
X134642860Y-125984000D03*
X134642860Y-125034040D03*
D16*
X136652000Y-118396000D03*
X136652000Y-122396000D03*
D23*
X150368000Y-120142000D03*
X155194000Y-116840000D03*
X136652000Y-116332000D03*
X136652000Y-125984000D03*
X121412000Y-122428000D03*
X132588000Y-119888000D03*
X132588000Y-124968000D03*
X105410000Y-105410000D03*
X105410000Y-106426000D03*
X106426000Y-106426000D03*
X106426000Y-105410000D03*
X107442000Y-105410000D03*
X107442000Y-106426000D03*
X109982000Y-106426000D03*
X110998000Y-106426000D03*
X112014000Y-106426000D03*
X112014000Y-105410000D03*
X110998000Y-105410000D03*
X109982000Y-105410000D03*
X117856000Y-104394000D03*
X118872000Y-104394000D03*
X118872000Y-105410000D03*
X119888000Y-105410000D03*
X119888000Y-106426000D03*
X118872000Y-106426000D03*
X117856000Y-106426000D03*
X117856000Y-105410000D03*
X117856000Y-107442000D03*
X118872000Y-107442000D03*
X119888000Y-107442000D03*
X119380000Y-112014000D03*
X159512000Y-112014000D03*
X159512000Y-110998000D03*
X152400000Y-127254000D03*
X152400000Y-128270000D03*
X153416000Y-128270000D03*
X153416000Y-127254000D03*
X154432000Y-127254000D03*
X154432000Y-128270000D03*
X155448000Y-128270000D03*
X155448000Y-127254000D03*
X156464000Y-127254000D03*
X156464000Y-128270000D03*
X157480000Y-128270000D03*
X157480000Y-127254000D03*
X158496000Y-127254000D03*
X159512000Y-127254000D03*
X159512000Y-126238000D03*
X159512000Y-125222000D03*
X159512000Y-124206000D03*
X159512000Y-123190000D03*
X159512000Y-122174000D03*
X159512000Y-121158000D03*
X159512000Y-113284000D03*
X159512000Y-114300000D03*
X159512000Y-115316000D03*
X159512000Y-116332000D03*
X159512000Y-117348000D03*
X159512000Y-118364000D03*
X159512000Y-119380000D03*
X159512000Y-120396000D03*
X156464000Y-112014000D03*
X156464000Y-110998000D03*
X155448000Y-112014000D03*
X157480000Y-110998000D03*
X157480000Y-112014000D03*
X158496000Y-112014000D03*
X158496000Y-110998000D03*
X158496000Y-109982000D03*
X159512000Y-109982000D03*
X158496000Y-108966000D03*
X159512000Y-108966000D03*
X158496000Y-107950000D03*
X159512000Y-107950000D03*
X158496000Y-106934000D03*
X159512000Y-106934000D03*
X158496000Y-105918000D03*
X159512000Y-105918000D03*
X158496000Y-104902000D03*
X159512000Y-104902000D03*
X158496000Y-103886000D03*
X159512000Y-103886000D03*
X146304000Y-125984000D03*
X142240000Y-125984000D03*
D24*
X157480000Y-116840000D02*
X155194000Y-116840000D01*
X150368000Y-120142000D02*
X148844000Y-120142000D01*
X148844000Y-118332000D02*
X148844000Y-120142000D01*
X148844000Y-120142000D02*
X148844000Y-121952000D01*
X134642860Y-125984000D02*
X136652000Y-125984000D01*
X136652000Y-116332000D02*
X136652000Y-114554000D01*
X123444000Y-118396000D02*
X123444000Y-114046000D01*
X123444000Y-114046000D02*
X125730000Y-111760000D01*
X144240000Y-125984000D02*
X144240000Y-123730000D01*
X144240000Y-123730000D02*
X144272000Y-123698000D01*
X145320000Y-108744000D02*
X144780000Y-108204000D01*
X123444000Y-122396000D02*
X123444000Y-125984000D01*
X121412000Y-122428000D02*
X119348000Y-122428000D01*
X131041140Y-125984000D02*
X129032000Y-125984000D01*
X128524000Y-125476000D02*
X128524000Y-122396000D01*
X129032000Y-125984000D02*
X128524000Y-125476000D01*
X139700000Y-118396000D02*
X136652000Y-118396000D01*
X132588000Y-117972840D02*
X136228840Y-117972840D01*
X136228840Y-117972840D02*
X136652000Y-118396000D01*
X132588000Y-117972840D02*
X128947160Y-117972840D01*
X128947160Y-117972840D02*
X128524000Y-118396000D01*
X136652000Y-118396000D02*
X128524000Y-118396000D01*
X140208000Y-108204000D02*
X140240000Y-117856000D01*
X140240000Y-117856000D02*
X139700000Y-118396000D01*
X131041140Y-126933960D02*
X132521960Y-126933960D01*
X132588000Y-126867920D02*
X132588000Y-124968000D01*
X132521960Y-126933960D02*
X132588000Y-126867920D01*
X131041140Y-125034040D02*
X132521960Y-125034040D01*
X132588000Y-119888000D02*
X132588000Y-117972840D01*
X132521960Y-125034040D02*
X132588000Y-124968000D01*
X139700000Y-118396000D02*
X139668000Y-118396000D01*
X139668000Y-118396000D02*
X139172000Y-118384000D01*
X105410000Y-106426000D02*
X105410000Y-105410000D01*
X106426000Y-105410000D02*
X106426000Y-106426000D01*
X107442000Y-106426000D02*
X107442000Y-105410000D01*
X110998000Y-106426000D02*
X109982000Y-106426000D01*
X112014000Y-105410000D02*
X112014000Y-106426000D01*
X109982000Y-105410000D02*
X110998000Y-105410000D01*
X108712000Y-109768000D02*
X108712000Y-103670100D01*
X108712000Y-103670100D02*
X108673900Y-103632000D01*
X117856000Y-104394000D02*
X118872000Y-104394000D01*
X118872000Y-105410000D02*
X119888000Y-105410000D01*
X119888000Y-106426000D02*
X118872000Y-106426000D01*
X117856000Y-106426000D02*
X117856000Y-105410000D01*
X117856000Y-107442000D02*
X118872000Y-107442000D01*
X119380000Y-109474000D02*
X119126000Y-109474000D01*
X119380000Y-109474000D02*
X118618000Y-109474000D01*
X119380000Y-109474000D02*
X119380000Y-109220000D01*
X159512000Y-121158000D02*
X159512000Y-120396000D01*
X158496000Y-110998000D02*
X159512000Y-110998000D01*
X152400000Y-127254000D02*
X152400000Y-128270000D01*
X153416000Y-128270000D02*
X153416000Y-127254000D01*
X154432000Y-127254000D02*
X154432000Y-128270000D01*
X155448000Y-128270000D02*
X155448000Y-127254000D01*
X156464000Y-127254000D02*
X156464000Y-128270000D01*
X157480000Y-128270000D02*
X157480000Y-127254000D01*
X158496000Y-127254000D02*
X159512000Y-127254000D01*
X159512000Y-126238000D02*
X159512000Y-125222000D01*
X159512000Y-124206000D02*
X159512000Y-123190000D01*
X159512000Y-122174000D02*
X159512000Y-121158000D01*
X159512000Y-113284000D02*
X159512000Y-112014000D01*
X159512000Y-115316000D02*
X159512000Y-114300000D01*
X159512000Y-117348000D02*
X159512000Y-116332000D01*
X159512000Y-119380000D02*
X159512000Y-118364000D01*
X155194000Y-123190000D02*
X155194000Y-124968000D01*
X155448000Y-112014000D02*
X156464000Y-112014000D01*
X157480000Y-112014000D02*
X157480000Y-110998000D01*
X158496000Y-110998000D02*
X158496000Y-112014000D01*
X157440000Y-108926000D02*
X158496000Y-109982000D01*
X157440000Y-108926000D02*
X153924000Y-108926000D01*
X159512000Y-108966000D02*
X158496000Y-108966000D01*
X157520000Y-108926000D02*
X158496000Y-107950000D01*
X157520000Y-108926000D02*
X153924000Y-108926000D01*
X159512000Y-106934000D02*
X158496000Y-106934000D01*
X156504000Y-103926000D02*
X158496000Y-105918000D01*
X156504000Y-103926000D02*
X153924000Y-103926000D01*
X159512000Y-104902000D02*
X158496000Y-104902000D01*
X158456000Y-103926000D02*
X158496000Y-103886000D01*
X158456000Y-103926000D02*
X153924000Y-103926000D01*
X140240000Y-125984000D02*
X142240000Y-125984000D01*
X146304000Y-125984000D02*
X148844000Y-125952000D01*
X134642860Y-125034040D02*
X137347960Y-125034040D01*
X137347960Y-125034040D02*
X138297920Y-125984000D01*
X134642860Y-126933960D02*
X137347960Y-126933960D01*
X137347960Y-126933960D02*
X138297920Y-125984000D01*
X138297920Y-125984000D02*
X140240000Y-125984000D01*
D25*
G36*
X116713000Y-127889000D02*
X103251000Y-127889000D01*
X103251000Y-117983000D01*
X116713000Y-117983000D01*
X116713000Y-127889000D01*
X116713000Y-127889000D01*
G37*
X116713000Y-127889000D02*
X103251000Y-127889000D01*
X103251000Y-117983000D01*
X116713000Y-117983000D01*
X116713000Y-127889000D01*
G36*
X157872157Y-90909545D02*
X157716119Y-91694000D01*
X157872157Y-92478455D01*
X158316515Y-93143485D01*
X158981545Y-93587843D01*
X159385000Y-93668095D01*
X159385000Y-100965000D01*
X151130000Y-100965000D01*
X151080590Y-100975006D01*
X151045317Y-100997354D01*
X146255477Y-105283000D01*
X138176000Y-105283000D01*
X138126590Y-105293006D01*
X138084965Y-105321447D01*
X138057685Y-105363841D01*
X138049000Y-105410000D01*
X138049000Y-115189000D01*
X122047000Y-115189000D01*
X122047000Y-108331000D01*
X129032000Y-108331000D01*
X129081410Y-108320994D01*
X129121803Y-108293803D01*
X132677803Y-104737803D01*
X132705666Y-104695789D01*
X132715000Y-104648000D01*
X132715000Y-90551000D01*
X158111729Y-90551000D01*
X157872157Y-90909545D01*
X157872157Y-90909545D01*
G37*
X157872157Y-90909545D02*
X157716119Y-91694000D01*
X157872157Y-92478455D01*
X158316515Y-93143485D01*
X158981545Y-93587843D01*
X159385000Y-93668095D01*
X159385000Y-100965000D01*
X151130000Y-100965000D01*
X151080590Y-100975006D01*
X151045317Y-100997354D01*
X146255477Y-105283000D01*
X138176000Y-105283000D01*
X138126590Y-105293006D01*
X138084965Y-105321447D01*
X138057685Y-105363841D01*
X138049000Y-105410000D01*
X138049000Y-115189000D01*
X122047000Y-115189000D01*
X122047000Y-108331000D01*
X129032000Y-108331000D01*
X129081410Y-108320994D01*
X129121803Y-108293803D01*
X132677803Y-104737803D01*
X132705666Y-104695789D01*
X132715000Y-104648000D01*
X132715000Y-90551000D01*
X158111729Y-90551000D01*
X157872157Y-90909545D01*
G36*
X146177000Y-112776000D02*
X146187006Y-112825410D01*
X146215447Y-112867035D01*
X146257841Y-112894315D01*
X146304000Y-112903000D01*
X152097715Y-112903000D01*
X154305000Y-114865031D01*
X154305000Y-116542811D01*
X154259162Y-116653201D01*
X154258838Y-117025167D01*
X154305000Y-117136888D01*
X154305000Y-118745000D01*
X151959968Y-118745000D01*
X149965670Y-115753553D01*
X149929937Y-115717992D01*
X149860000Y-115697000D01*
X146304000Y-115697000D01*
X146254590Y-115707006D01*
X146212965Y-115735447D01*
X146185685Y-115777841D01*
X146177000Y-115824000D01*
X146177000Y-123825000D01*
X117983000Y-123825000D01*
X117983000Y-121031000D01*
X140970000Y-121031000D01*
X141019410Y-121020994D01*
X141054374Y-120998921D01*
X143340374Y-118966921D01*
X143370656Y-118926616D01*
X143383000Y-118872000D01*
X143383000Y-106299000D01*
X146177000Y-106299000D01*
X146177000Y-112776000D01*
X146177000Y-112776000D01*
G37*
X146177000Y-112776000D02*
X146187006Y-112825410D01*
X146215447Y-112867035D01*
X146257841Y-112894315D01*
X146304000Y-112903000D01*
X152097715Y-112903000D01*
X154305000Y-114865031D01*
X154305000Y-116542811D01*
X154259162Y-116653201D01*
X154258838Y-117025167D01*
X154305000Y-117136888D01*
X154305000Y-118745000D01*
X151959968Y-118745000D01*
X149965670Y-115753553D01*
X149929937Y-115717992D01*
X149860000Y-115697000D01*
X146304000Y-115697000D01*
X146254590Y-115707006D01*
X146212965Y-115735447D01*
X146185685Y-115777841D01*
X146177000Y-115824000D01*
X146177000Y-123825000D01*
X117983000Y-123825000D01*
X117983000Y-121031000D01*
X140970000Y-121031000D01*
X141019410Y-121020994D01*
X141054374Y-120998921D01*
X143340374Y-118966921D01*
X143370656Y-118926616D01*
X143383000Y-118872000D01*
X143383000Y-106299000D01*
X146177000Y-106299000D01*
X146177000Y-112776000D01*
G36*
X129413000Y-105029000D02*
X120904000Y-105029000D01*
X120854590Y-105039006D01*
X120812965Y-105067447D01*
X120785685Y-105109841D01*
X120777000Y-105156000D01*
X120777000Y-115189000D01*
X116967000Y-115189000D01*
X116967000Y-97155000D01*
X129413000Y-97155000D01*
X129413000Y-105029000D01*
X129413000Y-105029000D01*
G37*
X129413000Y-105029000D02*
X120904000Y-105029000D01*
X120854590Y-105039006D01*
X120812965Y-105067447D01*
X120785685Y-105109841D01*
X120777000Y-105156000D01*
X120777000Y-115189000D01*
X116967000Y-115189000D01*
X116967000Y-97155000D01*
X129413000Y-97155000D01*
X129413000Y-105029000D01*
G36*
X160655000Y-128224012D02*
X160550455Y-128154157D01*
X159766000Y-127998119D01*
X158981545Y-128154157D01*
X158316515Y-128598515D01*
X158111729Y-128905000D01*
X151511000Y-128905000D01*
X151511000Y-119761000D01*
X158750000Y-119761000D01*
X158799410Y-119750994D01*
X158841035Y-119722553D01*
X158868315Y-119680159D01*
X158877000Y-119634000D01*
X158877000Y-118652378D01*
X158901931Y-118615890D01*
X158952940Y-118364000D01*
X158952940Y-115316000D01*
X158908662Y-115080683D01*
X158877000Y-115031479D01*
X158877000Y-113284000D01*
X158866994Y-113234590D01*
X158838553Y-113192965D01*
X158796159Y-113165685D01*
X158750000Y-113157000D01*
X154983575Y-113157000D01*
X152731970Y-111405752D01*
X152686826Y-111383316D01*
X152654000Y-111379000D01*
X151511000Y-111379000D01*
X151511000Y-101981000D01*
X160655000Y-101981000D01*
X160655000Y-128224012D01*
X160655000Y-128224012D01*
G37*
X160655000Y-128224012D02*
X160550455Y-128154157D01*
X159766000Y-127998119D01*
X158981545Y-128154157D01*
X158316515Y-128598515D01*
X158111729Y-128905000D01*
X151511000Y-128905000D01*
X151511000Y-119761000D01*
X158750000Y-119761000D01*
X158799410Y-119750994D01*
X158841035Y-119722553D01*
X158868315Y-119680159D01*
X158877000Y-119634000D01*
X158877000Y-118652378D01*
X158901931Y-118615890D01*
X158952940Y-118364000D01*
X158952940Y-115316000D01*
X158908662Y-115080683D01*
X158877000Y-115031479D01*
X158877000Y-113284000D01*
X158866994Y-113234590D01*
X158838553Y-113192965D01*
X158796159Y-113165685D01*
X158750000Y-113157000D01*
X154983575Y-113157000D01*
X152731970Y-111405752D01*
X152686826Y-111383316D01*
X152654000Y-111379000D01*
X151511000Y-111379000D01*
X151511000Y-101981000D01*
X160655000Y-101981000D01*
X160655000Y-128224012D01*
G36*
X113157000Y-116713000D02*
X103251000Y-116713000D01*
X103251000Y-97155000D01*
X113157000Y-97155000D01*
X113157000Y-116713000D01*
X113157000Y-116713000D01*
G37*
X113157000Y-116713000D02*
X103251000Y-116713000D01*
X103251000Y-97155000D01*
X113157000Y-97155000D01*
X113157000Y-116713000D01*
M02*
